%TF.GenerationSoftware,KiCad,Pcbnew,7.0.6*%
%TF.CreationDate,2023-08-20T14:40:53+02:00*%
%TF.ProjectId,pcergb,70636572-6762-42e6-9b69-6361645f7063,rev?*%
%TF.SameCoordinates,Original*%
%TF.FileFunction,Legend,Top*%
%TF.FilePolarity,Positive*%
%FSLAX46Y46*%
G04 Gerber Fmt 4.6, Leading zero omitted, Abs format (unit mm)*
G04 Created by KiCad (PCBNEW 7.0.6) date 2023-08-20 14:40:53*
%MOMM*%
%LPD*%
G01*
G04 APERTURE LIST*
%ADD10C,0.050000*%
%ADD11C,0.100000*%
%ADD12C,0.125000*%
%ADD13C,0.150000*%
%ADD14C,0.025000*%
%ADD15C,0.120000*%
G04 APERTURE END LIST*
D10*
X127645655Y-89919257D02*
X127645655Y-90562114D01*
X127645655Y-90562114D02*
X127636132Y-90690685D01*
X127636132Y-90690685D02*
X127617084Y-90776400D01*
X127617084Y-90776400D02*
X127588513Y-90819257D01*
X127588513Y-90819257D02*
X127569465Y-90819257D01*
X127836132Y-90819257D02*
X127740894Y-90819257D01*
X127740894Y-90819257D02*
X127740894Y-89919257D01*
X128017084Y-90733542D02*
X128007560Y-90776400D01*
X128007560Y-90776400D02*
X127978989Y-90819257D01*
X127978989Y-90819257D02*
X127959941Y-90819257D01*
X127959941Y-90819257D02*
X127931370Y-90776400D01*
X127931370Y-90776400D02*
X127912322Y-90690685D01*
X127912322Y-90690685D02*
X127902799Y-90604971D01*
X127902799Y-90604971D02*
X127893275Y-90433542D01*
X127893275Y-90433542D02*
X127893275Y-90304971D01*
X127893275Y-90304971D02*
X127902799Y-90133542D01*
X127902799Y-90133542D02*
X127912322Y-90047828D01*
X127912322Y-90047828D02*
X127931370Y-89962114D01*
X127931370Y-89962114D02*
X127959941Y-89919257D01*
X127959941Y-89919257D02*
X127978989Y-89919257D01*
X127978989Y-89919257D02*
X128007560Y-89962114D01*
X128007560Y-89962114D02*
X128017084Y-90004971D01*
X128159941Y-89919257D02*
X128159941Y-90562114D01*
X128159941Y-90562114D02*
X128150418Y-90690685D01*
X128150418Y-90690685D02*
X128131370Y-90776400D01*
X128131370Y-90776400D02*
X128102799Y-90819257D01*
X128102799Y-90819257D02*
X128083751Y-90819257D01*
X128350418Y-90819257D02*
X128255180Y-90819257D01*
X128255180Y-90819257D02*
X128255180Y-89919257D01*
X128531370Y-90733542D02*
X128521846Y-90776400D01*
X128521846Y-90776400D02*
X128493275Y-90819257D01*
X128493275Y-90819257D02*
X128474227Y-90819257D01*
X128474227Y-90819257D02*
X128445656Y-90776400D01*
X128445656Y-90776400D02*
X128426608Y-90690685D01*
X128426608Y-90690685D02*
X128417085Y-90604971D01*
X128417085Y-90604971D02*
X128407561Y-90433542D01*
X128407561Y-90433542D02*
X128407561Y-90304971D01*
X128407561Y-90304971D02*
X128417085Y-90133542D01*
X128417085Y-90133542D02*
X128426608Y-90047828D01*
X128426608Y-90047828D02*
X128445656Y-89962114D01*
X128445656Y-89962114D02*
X128474227Y-89919257D01*
X128474227Y-89919257D02*
X128493275Y-89919257D01*
X128493275Y-89919257D02*
X128521846Y-89962114D01*
X128521846Y-89962114D02*
X128531370Y-90004971D01*
X128674227Y-89919257D02*
X128674227Y-90562114D01*
X128674227Y-90562114D02*
X128664704Y-90690685D01*
X128664704Y-90690685D02*
X128645656Y-90776400D01*
X128645656Y-90776400D02*
X128617085Y-90819257D01*
X128617085Y-90819257D02*
X128598037Y-90819257D01*
X128864704Y-90819257D02*
X128769466Y-90819257D01*
X128769466Y-90819257D02*
X128769466Y-89919257D01*
X129045656Y-90733542D02*
X129036132Y-90776400D01*
X129036132Y-90776400D02*
X129007561Y-90819257D01*
X129007561Y-90819257D02*
X128988513Y-90819257D01*
X128988513Y-90819257D02*
X128959942Y-90776400D01*
X128959942Y-90776400D02*
X128940894Y-90690685D01*
X128940894Y-90690685D02*
X128931371Y-90604971D01*
X128931371Y-90604971D02*
X128921847Y-90433542D01*
X128921847Y-90433542D02*
X128921847Y-90304971D01*
X128921847Y-90304971D02*
X128931371Y-90133542D01*
X128931371Y-90133542D02*
X128940894Y-90047828D01*
X128940894Y-90047828D02*
X128959942Y-89962114D01*
X128959942Y-89962114D02*
X128988513Y-89919257D01*
X128988513Y-89919257D02*
X129007561Y-89919257D01*
X129007561Y-89919257D02*
X129036132Y-89962114D01*
X129036132Y-89962114D02*
X129045656Y-90004971D01*
X129188513Y-89919257D02*
X129188513Y-90562114D01*
X129188513Y-90562114D02*
X129178990Y-90690685D01*
X129178990Y-90690685D02*
X129159942Y-90776400D01*
X129159942Y-90776400D02*
X129131371Y-90819257D01*
X129131371Y-90819257D02*
X129112323Y-90819257D01*
X129378990Y-90819257D02*
X129283752Y-90819257D01*
X129283752Y-90819257D02*
X129283752Y-89919257D01*
X129559942Y-90733542D02*
X129550418Y-90776400D01*
X129550418Y-90776400D02*
X129521847Y-90819257D01*
X129521847Y-90819257D02*
X129502799Y-90819257D01*
X129502799Y-90819257D02*
X129474228Y-90776400D01*
X129474228Y-90776400D02*
X129455180Y-90690685D01*
X129455180Y-90690685D02*
X129445657Y-90604971D01*
X129445657Y-90604971D02*
X129436133Y-90433542D01*
X129436133Y-90433542D02*
X129436133Y-90304971D01*
X129436133Y-90304971D02*
X129445657Y-90133542D01*
X129445657Y-90133542D02*
X129455180Y-90047828D01*
X129455180Y-90047828D02*
X129474228Y-89962114D01*
X129474228Y-89962114D02*
X129502799Y-89919257D01*
X129502799Y-89919257D02*
X129521847Y-89919257D01*
X129521847Y-89919257D02*
X129550418Y-89962114D01*
X129550418Y-89962114D02*
X129559942Y-90004971D01*
D11*
X102137869Y-79019510D02*
X101604535Y-79019510D01*
X101756916Y-79019510D02*
X101680726Y-78981415D01*
X101680726Y-78981415D02*
X101642631Y-78943320D01*
X101642631Y-78943320D02*
X101604535Y-78867129D01*
X101604535Y-78867129D02*
X101604535Y-78790939D01*
X135761561Y-81950877D02*
X136409180Y-81950877D01*
X136409180Y-81950877D02*
X136485371Y-81988972D01*
X136485371Y-81988972D02*
X136523466Y-82027068D01*
X136523466Y-82027068D02*
X136561561Y-82103258D01*
X136561561Y-82103258D02*
X136561561Y-82217544D01*
X136561561Y-82217544D02*
X136523466Y-82293734D01*
X136256800Y-81950877D02*
X136294895Y-82027068D01*
X136294895Y-82027068D02*
X136294895Y-82179449D01*
X136294895Y-82179449D02*
X136256800Y-82255639D01*
X136256800Y-82255639D02*
X136218704Y-82293734D01*
X136218704Y-82293734D02*
X136142514Y-82331830D01*
X136142514Y-82331830D02*
X135913942Y-82331830D01*
X135913942Y-82331830D02*
X135837752Y-82293734D01*
X135837752Y-82293734D02*
X135799657Y-82255639D01*
X135799657Y-82255639D02*
X135761561Y-82179449D01*
X135761561Y-82179449D02*
X135761561Y-82027068D01*
X135761561Y-82027068D02*
X135799657Y-81950877D01*
X136510800Y-86903830D02*
X136548895Y-86827639D01*
X136548895Y-86827639D02*
X136548895Y-86675258D01*
X136548895Y-86675258D02*
X136510800Y-86599068D01*
X136510800Y-86599068D02*
X136434609Y-86560972D01*
X136434609Y-86560972D02*
X136396514Y-86560972D01*
X136396514Y-86560972D02*
X136320323Y-86599068D01*
X136320323Y-86599068D02*
X136282228Y-86675258D01*
X136282228Y-86675258D02*
X136282228Y-86789544D01*
X136282228Y-86789544D02*
X136244133Y-86865734D01*
X136244133Y-86865734D02*
X136167942Y-86903830D01*
X136167942Y-86903830D02*
X136129847Y-86903830D01*
X136129847Y-86903830D02*
X136053657Y-86865734D01*
X136053657Y-86865734D02*
X136015561Y-86789544D01*
X136015561Y-86789544D02*
X136015561Y-86675258D01*
X136015561Y-86675258D02*
X136053657Y-86599068D01*
D12*
X133670331Y-88939119D02*
X133670331Y-87939119D01*
X133670331Y-87939119D02*
X134051283Y-87939119D01*
X134051283Y-87939119D02*
X134146521Y-87986738D01*
X134146521Y-87986738D02*
X134194140Y-88034357D01*
X134194140Y-88034357D02*
X134241759Y-88129595D01*
X134241759Y-88129595D02*
X134241759Y-88272452D01*
X134241759Y-88272452D02*
X134194140Y-88367690D01*
X134194140Y-88367690D02*
X134146521Y-88415309D01*
X134146521Y-88415309D02*
X134051283Y-88462928D01*
X134051283Y-88462928D02*
X133670331Y-88462928D01*
X135241759Y-88843880D02*
X135194140Y-88891500D01*
X135194140Y-88891500D02*
X135051283Y-88939119D01*
X135051283Y-88939119D02*
X134956045Y-88939119D01*
X134956045Y-88939119D02*
X134813188Y-88891500D01*
X134813188Y-88891500D02*
X134717950Y-88796261D01*
X134717950Y-88796261D02*
X134670331Y-88701023D01*
X134670331Y-88701023D02*
X134622712Y-88510547D01*
X134622712Y-88510547D02*
X134622712Y-88367690D01*
X134622712Y-88367690D02*
X134670331Y-88177214D01*
X134670331Y-88177214D02*
X134717950Y-88081976D01*
X134717950Y-88081976D02*
X134813188Y-87986738D01*
X134813188Y-87986738D02*
X134956045Y-87939119D01*
X134956045Y-87939119D02*
X135051283Y-87939119D01*
X135051283Y-87939119D02*
X135194140Y-87986738D01*
X135194140Y-87986738D02*
X135241759Y-88034357D01*
X135670331Y-88415309D02*
X136003664Y-88415309D01*
X136146521Y-88939119D02*
X135670331Y-88939119D01*
X135670331Y-88939119D02*
X135670331Y-87939119D01*
X135670331Y-87939119D02*
X136146521Y-87939119D01*
X134241759Y-90549119D02*
X133908426Y-90072928D01*
X133670331Y-90549119D02*
X133670331Y-89549119D01*
X133670331Y-89549119D02*
X134051283Y-89549119D01*
X134051283Y-89549119D02*
X134146521Y-89596738D01*
X134146521Y-89596738D02*
X134194140Y-89644357D01*
X134194140Y-89644357D02*
X134241759Y-89739595D01*
X134241759Y-89739595D02*
X134241759Y-89882452D01*
X134241759Y-89882452D02*
X134194140Y-89977690D01*
X134194140Y-89977690D02*
X134146521Y-90025309D01*
X134146521Y-90025309D02*
X134051283Y-90072928D01*
X134051283Y-90072928D02*
X133670331Y-90072928D01*
X135194140Y-89596738D02*
X135098902Y-89549119D01*
X135098902Y-89549119D02*
X134956045Y-89549119D01*
X134956045Y-89549119D02*
X134813188Y-89596738D01*
X134813188Y-89596738D02*
X134717950Y-89691976D01*
X134717950Y-89691976D02*
X134670331Y-89787214D01*
X134670331Y-89787214D02*
X134622712Y-89977690D01*
X134622712Y-89977690D02*
X134622712Y-90120547D01*
X134622712Y-90120547D02*
X134670331Y-90311023D01*
X134670331Y-90311023D02*
X134717950Y-90406261D01*
X134717950Y-90406261D02*
X134813188Y-90501500D01*
X134813188Y-90501500D02*
X134956045Y-90549119D01*
X134956045Y-90549119D02*
X135051283Y-90549119D01*
X135051283Y-90549119D02*
X135194140Y-90501500D01*
X135194140Y-90501500D02*
X135241759Y-90453880D01*
X135241759Y-90453880D02*
X135241759Y-90120547D01*
X135241759Y-90120547D02*
X135051283Y-90120547D01*
X136003664Y-90025309D02*
X136146521Y-90072928D01*
X136146521Y-90072928D02*
X136194140Y-90120547D01*
X136194140Y-90120547D02*
X136241759Y-90215785D01*
X136241759Y-90215785D02*
X136241759Y-90358642D01*
X136241759Y-90358642D02*
X136194140Y-90453880D01*
X136194140Y-90453880D02*
X136146521Y-90501500D01*
X136146521Y-90501500D02*
X136051283Y-90549119D01*
X136051283Y-90549119D02*
X135670331Y-90549119D01*
X135670331Y-90549119D02*
X135670331Y-89549119D01*
X135670331Y-89549119D02*
X136003664Y-89549119D01*
X136003664Y-89549119D02*
X136098902Y-89596738D01*
X136098902Y-89596738D02*
X136146521Y-89644357D01*
X136146521Y-89644357D02*
X136194140Y-89739595D01*
X136194140Y-89739595D02*
X136194140Y-89834833D01*
X136194140Y-89834833D02*
X136146521Y-89930071D01*
X136146521Y-89930071D02*
X136098902Y-89977690D01*
X136098902Y-89977690D02*
X136003664Y-90025309D01*
X136003664Y-90025309D02*
X135670331Y-90025309D01*
D11*
X101496990Y-88715892D02*
X101458895Y-88792082D01*
X101458895Y-88792082D02*
X101458895Y-88906368D01*
X101458895Y-88906368D02*
X101496990Y-89020654D01*
X101496990Y-89020654D02*
X101573180Y-89096844D01*
X101573180Y-89096844D02*
X101649371Y-89134939D01*
X101649371Y-89134939D02*
X101801752Y-89173035D01*
X101801752Y-89173035D02*
X101916038Y-89173035D01*
X101916038Y-89173035D02*
X102068419Y-89134939D01*
X102068419Y-89134939D02*
X102144609Y-89096844D01*
X102144609Y-89096844D02*
X102220800Y-89020654D01*
X102220800Y-89020654D02*
X102258895Y-88906368D01*
X102258895Y-88906368D02*
X102258895Y-88830177D01*
X102258895Y-88830177D02*
X102220800Y-88715892D01*
X102220800Y-88715892D02*
X102182704Y-88677796D01*
X102182704Y-88677796D02*
X101916038Y-88677796D01*
X101916038Y-88677796D02*
X101916038Y-88830177D01*
X102258895Y-88334939D02*
X101458895Y-88334939D01*
X101458895Y-88334939D02*
X102258895Y-87877796D01*
X102258895Y-87877796D02*
X101458895Y-87877796D01*
X102258895Y-87496844D02*
X101458895Y-87496844D01*
X101458895Y-87496844D02*
X101458895Y-87306368D01*
X101458895Y-87306368D02*
X101496990Y-87192082D01*
X101496990Y-87192082D02*
X101573180Y-87115892D01*
X101573180Y-87115892D02*
X101649371Y-87077797D01*
X101649371Y-87077797D02*
X101801752Y-87039701D01*
X101801752Y-87039701D02*
X101916038Y-87039701D01*
X101916038Y-87039701D02*
X102068419Y-87077797D01*
X102068419Y-87077797D02*
X102144609Y-87115892D01*
X102144609Y-87115892D02*
X102220800Y-87192082D01*
X102220800Y-87192082D02*
X102258895Y-87306368D01*
X102258895Y-87306368D02*
X102258895Y-87496844D01*
X102099774Y-85991797D02*
X102137869Y-85915606D01*
X102137869Y-85915606D02*
X102137869Y-85763225D01*
X102137869Y-85763225D02*
X102099774Y-85687035D01*
X102099774Y-85687035D02*
X102023583Y-85648939D01*
X102023583Y-85648939D02*
X101985488Y-85648939D01*
X101985488Y-85648939D02*
X101909297Y-85687035D01*
X101909297Y-85687035D02*
X101871202Y-85763225D01*
X101871202Y-85763225D02*
X101871202Y-85877511D01*
X101871202Y-85877511D02*
X101833107Y-85953701D01*
X101833107Y-85953701D02*
X101756916Y-85991797D01*
X101756916Y-85991797D02*
X101718821Y-85991797D01*
X101718821Y-85991797D02*
X101642631Y-85953701D01*
X101642631Y-85953701D02*
X101604535Y-85877511D01*
X101604535Y-85877511D02*
X101604535Y-85763225D01*
X101604535Y-85763225D02*
X101642631Y-85687035D01*
D12*
X124211712Y-81352833D02*
X124821236Y-81352833D01*
X124516474Y-81657595D02*
X124516474Y-81048071D01*
D13*
X134550398Y-91377107D02*
X134693255Y-91777107D01*
X134693255Y-91777107D02*
X134836112Y-91377107D01*
X135378969Y-91777107D02*
X135036112Y-91777107D01*
X135207541Y-91777107D02*
X135207541Y-91177107D01*
X135207541Y-91177107D02*
X135150398Y-91262821D01*
X135150398Y-91262821D02*
X135093255Y-91319964D01*
X135093255Y-91319964D02*
X135036112Y-91348536D01*
X135636113Y-91719964D02*
X135664684Y-91748536D01*
X135664684Y-91748536D02*
X135636113Y-91777107D01*
X135636113Y-91777107D02*
X135607541Y-91748536D01*
X135607541Y-91748536D02*
X135636113Y-91719964D01*
X135636113Y-91719964D02*
X135636113Y-91777107D01*
X136236112Y-91777107D02*
X135893255Y-91777107D01*
X136064684Y-91777107D02*
X136064684Y-91177107D01*
X136064684Y-91177107D02*
X136007541Y-91262821D01*
X136007541Y-91262821D02*
X135950398Y-91319964D01*
X135950398Y-91319964D02*
X135893255Y-91348536D01*
D11*
X136548895Y-84579734D02*
X135748895Y-84579734D01*
X136053657Y-84579734D02*
X136015561Y-84503544D01*
X136015561Y-84503544D02*
X136015561Y-84351163D01*
X136015561Y-84351163D02*
X136053657Y-84274972D01*
X136053657Y-84274972D02*
X136091752Y-84236877D01*
X136091752Y-84236877D02*
X136167942Y-84198782D01*
X136167942Y-84198782D02*
X136396514Y-84198782D01*
X136396514Y-84198782D02*
X136472704Y-84236877D01*
X136472704Y-84236877D02*
X136510800Y-84274972D01*
X136510800Y-84274972D02*
X136548895Y-84351163D01*
X136548895Y-84351163D02*
X136548895Y-84503544D01*
X136548895Y-84503544D02*
X136510800Y-84579734D01*
D12*
X124211712Y-86305833D02*
X124821236Y-86305833D01*
X124516474Y-86610595D02*
X124516474Y-86001071D01*
D11*
X101458895Y-90548782D02*
X101458895Y-90929734D01*
X101458895Y-90929734D02*
X101839847Y-90967830D01*
X101839847Y-90967830D02*
X101801752Y-90929734D01*
X101801752Y-90929734D02*
X101763657Y-90853544D01*
X101763657Y-90853544D02*
X101763657Y-90663068D01*
X101763657Y-90663068D02*
X101801752Y-90586877D01*
X101801752Y-90586877D02*
X101839847Y-90548782D01*
X101839847Y-90548782D02*
X101916038Y-90510687D01*
X101916038Y-90510687D02*
X102106514Y-90510687D01*
X102106514Y-90510687D02*
X102182704Y-90548782D01*
X102182704Y-90548782D02*
X102220800Y-90586877D01*
X102220800Y-90586877D02*
X102258895Y-90663068D01*
X102258895Y-90663068D02*
X102258895Y-90853544D01*
X102258895Y-90853544D02*
X102220800Y-90929734D01*
X102220800Y-90929734D02*
X102182704Y-90967830D01*
X101458895Y-90282115D02*
X102258895Y-90015448D01*
X102258895Y-90015448D02*
X101458895Y-89748782D01*
X136548895Y-80007734D02*
X136015561Y-80007734D01*
X136167942Y-80007734D02*
X136091752Y-79969639D01*
X136091752Y-79969639D02*
X136053657Y-79931544D01*
X136053657Y-79931544D02*
X136015561Y-79855353D01*
X136015561Y-79855353D02*
X136015561Y-79779163D01*
X101604535Y-81076939D02*
X102252154Y-81076939D01*
X102252154Y-81076939D02*
X102328345Y-81115034D01*
X102328345Y-81115034D02*
X102366440Y-81153130D01*
X102366440Y-81153130D02*
X102404535Y-81229320D01*
X102404535Y-81229320D02*
X102404535Y-81343606D01*
X102404535Y-81343606D02*
X102366440Y-81419796D01*
X102099774Y-81076939D02*
X102137869Y-81153130D01*
X102137869Y-81153130D02*
X102137869Y-81305511D01*
X102137869Y-81305511D02*
X102099774Y-81381701D01*
X102099774Y-81381701D02*
X102061678Y-81419796D01*
X102061678Y-81419796D02*
X101985488Y-81457892D01*
X101985488Y-81457892D02*
X101756916Y-81457892D01*
X101756916Y-81457892D02*
X101680726Y-81419796D01*
X101680726Y-81419796D02*
X101642631Y-81381701D01*
X101642631Y-81381701D02*
X101604535Y-81305511D01*
X101604535Y-81305511D02*
X101604535Y-81153130D01*
X101604535Y-81153130D02*
X101642631Y-81076939D01*
X133758646Y-77074895D02*
X133911027Y-77074895D01*
X133911027Y-77074895D02*
X133987217Y-77112990D01*
X133987217Y-77112990D02*
X134063408Y-77189180D01*
X134063408Y-77189180D02*
X134101503Y-77341561D01*
X134101503Y-77341561D02*
X134101503Y-77608228D01*
X134101503Y-77608228D02*
X134063408Y-77760609D01*
X134063408Y-77760609D02*
X133987217Y-77836800D01*
X133987217Y-77836800D02*
X133911027Y-77874895D01*
X133911027Y-77874895D02*
X133758646Y-77874895D01*
X133758646Y-77874895D02*
X133682455Y-77836800D01*
X133682455Y-77836800D02*
X133606265Y-77760609D01*
X133606265Y-77760609D02*
X133568169Y-77608228D01*
X133568169Y-77608228D02*
X133568169Y-77341561D01*
X133568169Y-77341561D02*
X133606265Y-77189180D01*
X133606265Y-77189180D02*
X133682455Y-77112990D01*
X133682455Y-77112990D02*
X133758646Y-77074895D01*
X134444360Y-77074895D02*
X134444360Y-77722514D01*
X134444360Y-77722514D02*
X134482455Y-77798704D01*
X134482455Y-77798704D02*
X134520550Y-77836800D01*
X134520550Y-77836800D02*
X134596741Y-77874895D01*
X134596741Y-77874895D02*
X134749122Y-77874895D01*
X134749122Y-77874895D02*
X134825312Y-77836800D01*
X134825312Y-77836800D02*
X134863407Y-77798704D01*
X134863407Y-77798704D02*
X134901503Y-77722514D01*
X134901503Y-77722514D02*
X134901503Y-77074895D01*
X135168169Y-77074895D02*
X135625312Y-77074895D01*
X135396740Y-77874895D02*
X135396740Y-77074895D01*
D12*
X112171712Y-91258833D02*
X112781236Y-91258833D01*
X112476474Y-91563595D02*
X112476474Y-90954071D01*
D11*
X102137869Y-83705796D02*
X101337869Y-83705796D01*
X101642631Y-83705796D02*
X101604535Y-83629606D01*
X101604535Y-83629606D02*
X101604535Y-83477225D01*
X101604535Y-83477225D02*
X101642631Y-83401034D01*
X101642631Y-83401034D02*
X101680726Y-83362939D01*
X101680726Y-83362939D02*
X101756916Y-83324844D01*
X101756916Y-83324844D02*
X101985488Y-83324844D01*
X101985488Y-83324844D02*
X102061678Y-83362939D01*
X102061678Y-83362939D02*
X102099774Y-83401034D01*
X102099774Y-83401034D02*
X102137869Y-83477225D01*
X102137869Y-83477225D02*
X102137869Y-83629606D01*
X102137869Y-83629606D02*
X102099774Y-83705796D01*
X103126265Y-77870862D02*
X103126265Y-77070862D01*
X103507217Y-77870862D02*
X103507217Y-77070862D01*
X103507217Y-77070862D02*
X103964360Y-77870862D01*
X103964360Y-77870862D02*
X103964360Y-77070862D01*
D12*
X124211712Y-91258833D02*
X124821236Y-91258833D01*
X124516474Y-91563595D02*
X124516474Y-90954071D01*
D14*
X119820571Y-84828009D02*
X119653905Y-84589914D01*
X119534857Y-84828009D02*
X119534857Y-84328009D01*
X119534857Y-84328009D02*
X119725333Y-84328009D01*
X119725333Y-84328009D02*
X119772952Y-84351819D01*
X119772952Y-84351819D02*
X119796762Y-84375628D01*
X119796762Y-84375628D02*
X119820571Y-84423247D01*
X119820571Y-84423247D02*
X119820571Y-84494676D01*
X119820571Y-84494676D02*
X119796762Y-84542295D01*
X119796762Y-84542295D02*
X119772952Y-84566104D01*
X119772952Y-84566104D02*
X119725333Y-84589914D01*
X119725333Y-84589914D02*
X119534857Y-84589914D01*
X120296762Y-84828009D02*
X120011048Y-84828009D01*
X120153905Y-84828009D02*
X120153905Y-84328009D01*
X120153905Y-84328009D02*
X120106286Y-84399438D01*
X120106286Y-84399438D02*
X120058667Y-84447057D01*
X120058667Y-84447057D02*
X120011048Y-84470866D01*
X120463428Y-84328009D02*
X120772952Y-84328009D01*
X120772952Y-84328009D02*
X120606285Y-84518485D01*
X120606285Y-84518485D02*
X120677714Y-84518485D01*
X120677714Y-84518485D02*
X120725333Y-84542295D01*
X120725333Y-84542295D02*
X120749142Y-84566104D01*
X120749142Y-84566104D02*
X120772952Y-84613723D01*
X120772952Y-84613723D02*
X120772952Y-84732771D01*
X120772952Y-84732771D02*
X120749142Y-84780390D01*
X120749142Y-84780390D02*
X120725333Y-84804200D01*
X120725333Y-84804200D02*
X120677714Y-84828009D01*
X120677714Y-84828009D02*
X120534857Y-84828009D01*
X120534857Y-84828009D02*
X120487238Y-84804200D01*
X120487238Y-84804200D02*
X120463428Y-84780390D01*
X110152666Y-86520890D02*
X110128857Y-86544700D01*
X110128857Y-86544700D02*
X110057428Y-86568509D01*
X110057428Y-86568509D02*
X110009809Y-86568509D01*
X110009809Y-86568509D02*
X109938381Y-86544700D01*
X109938381Y-86544700D02*
X109890762Y-86497080D01*
X109890762Y-86497080D02*
X109866952Y-86449461D01*
X109866952Y-86449461D02*
X109843143Y-86354223D01*
X109843143Y-86354223D02*
X109843143Y-86282795D01*
X109843143Y-86282795D02*
X109866952Y-86187557D01*
X109866952Y-86187557D02*
X109890762Y-86139938D01*
X109890762Y-86139938D02*
X109938381Y-86092319D01*
X109938381Y-86092319D02*
X110009809Y-86068509D01*
X110009809Y-86068509D02*
X110057428Y-86068509D01*
X110057428Y-86068509D02*
X110128857Y-86092319D01*
X110128857Y-86092319D02*
X110152666Y-86116128D01*
X110319333Y-86068509D02*
X110628857Y-86068509D01*
X110628857Y-86068509D02*
X110462190Y-86258985D01*
X110462190Y-86258985D02*
X110533619Y-86258985D01*
X110533619Y-86258985D02*
X110581238Y-86282795D01*
X110581238Y-86282795D02*
X110605047Y-86306604D01*
X110605047Y-86306604D02*
X110628857Y-86354223D01*
X110628857Y-86354223D02*
X110628857Y-86473271D01*
X110628857Y-86473271D02*
X110605047Y-86520890D01*
X110605047Y-86520890D02*
X110581238Y-86544700D01*
X110581238Y-86544700D02*
X110533619Y-86568509D01*
X110533619Y-86568509D02*
X110390762Y-86568509D01*
X110390762Y-86568509D02*
X110343143Y-86544700D01*
X110343143Y-86544700D02*
X110319333Y-86520890D01*
X106088666Y-78986009D02*
X105922000Y-78747914D01*
X105802952Y-78986009D02*
X105802952Y-78486009D01*
X105802952Y-78486009D02*
X105993428Y-78486009D01*
X105993428Y-78486009D02*
X106041047Y-78509819D01*
X106041047Y-78509819D02*
X106064857Y-78533628D01*
X106064857Y-78533628D02*
X106088666Y-78581247D01*
X106088666Y-78581247D02*
X106088666Y-78652676D01*
X106088666Y-78652676D02*
X106064857Y-78700295D01*
X106064857Y-78700295D02*
X106041047Y-78724104D01*
X106041047Y-78724104D02*
X105993428Y-78747914D01*
X105993428Y-78747914D02*
X105802952Y-78747914D01*
X106564857Y-78986009D02*
X106279143Y-78986009D01*
X106422000Y-78986009D02*
X106422000Y-78486009D01*
X106422000Y-78486009D02*
X106374381Y-78557438D01*
X106374381Y-78557438D02*
X106326762Y-78605057D01*
X106326762Y-78605057D02*
X106279143Y-78628866D01*
X108120666Y-78970009D02*
X107954000Y-78731914D01*
X107834952Y-78970009D02*
X107834952Y-78470009D01*
X107834952Y-78470009D02*
X108025428Y-78470009D01*
X108025428Y-78470009D02*
X108073047Y-78493819D01*
X108073047Y-78493819D02*
X108096857Y-78517628D01*
X108096857Y-78517628D02*
X108120666Y-78565247D01*
X108120666Y-78565247D02*
X108120666Y-78636676D01*
X108120666Y-78636676D02*
X108096857Y-78684295D01*
X108096857Y-78684295D02*
X108073047Y-78708104D01*
X108073047Y-78708104D02*
X108025428Y-78731914D01*
X108025428Y-78731914D02*
X107834952Y-78731914D01*
X108573047Y-78470009D02*
X108334952Y-78470009D01*
X108334952Y-78470009D02*
X108311143Y-78708104D01*
X108311143Y-78708104D02*
X108334952Y-78684295D01*
X108334952Y-78684295D02*
X108382571Y-78660485D01*
X108382571Y-78660485D02*
X108501619Y-78660485D01*
X108501619Y-78660485D02*
X108549238Y-78684295D01*
X108549238Y-78684295D02*
X108573047Y-78708104D01*
X108573047Y-78708104D02*
X108596857Y-78755723D01*
X108596857Y-78755723D02*
X108596857Y-78874771D01*
X108596857Y-78874771D02*
X108573047Y-78922390D01*
X108573047Y-78922390D02*
X108549238Y-78946200D01*
X108549238Y-78946200D02*
X108501619Y-78970009D01*
X108501619Y-78970009D02*
X108382571Y-78970009D01*
X108382571Y-78970009D02*
X108334952Y-78946200D01*
X108334952Y-78946200D02*
X108311143Y-78922390D01*
X122106571Y-89892009D02*
X121939905Y-89653914D01*
X121820857Y-89892009D02*
X121820857Y-89392009D01*
X121820857Y-89392009D02*
X122011333Y-89392009D01*
X122011333Y-89392009D02*
X122058952Y-89415819D01*
X122058952Y-89415819D02*
X122082762Y-89439628D01*
X122082762Y-89439628D02*
X122106571Y-89487247D01*
X122106571Y-89487247D02*
X122106571Y-89558676D01*
X122106571Y-89558676D02*
X122082762Y-89606295D01*
X122082762Y-89606295D02*
X122058952Y-89630104D01*
X122058952Y-89630104D02*
X122011333Y-89653914D01*
X122011333Y-89653914D02*
X121820857Y-89653914D01*
X122582762Y-89892009D02*
X122297048Y-89892009D01*
X122439905Y-89892009D02*
X122439905Y-89392009D01*
X122439905Y-89392009D02*
X122392286Y-89463438D01*
X122392286Y-89463438D02*
X122344667Y-89511057D01*
X122344667Y-89511057D02*
X122297048Y-89534866D01*
X122773238Y-89439628D02*
X122797047Y-89415819D01*
X122797047Y-89415819D02*
X122844666Y-89392009D01*
X122844666Y-89392009D02*
X122963714Y-89392009D01*
X122963714Y-89392009D02*
X123011333Y-89415819D01*
X123011333Y-89415819D02*
X123035142Y-89439628D01*
X123035142Y-89439628D02*
X123058952Y-89487247D01*
X123058952Y-89487247D02*
X123058952Y-89534866D01*
X123058952Y-89534866D02*
X123035142Y-89606295D01*
X123035142Y-89606295D02*
X122749428Y-89892009D01*
X122749428Y-89892009D02*
X123058952Y-89892009D01*
X110152666Y-90330890D02*
X110128857Y-90354700D01*
X110128857Y-90354700D02*
X110057428Y-90378509D01*
X110057428Y-90378509D02*
X110009809Y-90378509D01*
X110009809Y-90378509D02*
X109938381Y-90354700D01*
X109938381Y-90354700D02*
X109890762Y-90307080D01*
X109890762Y-90307080D02*
X109866952Y-90259461D01*
X109866952Y-90259461D02*
X109843143Y-90164223D01*
X109843143Y-90164223D02*
X109843143Y-90092795D01*
X109843143Y-90092795D02*
X109866952Y-89997557D01*
X109866952Y-89997557D02*
X109890762Y-89949938D01*
X109890762Y-89949938D02*
X109938381Y-89902319D01*
X109938381Y-89902319D02*
X110009809Y-89878509D01*
X110009809Y-89878509D02*
X110057428Y-89878509D01*
X110057428Y-89878509D02*
X110128857Y-89902319D01*
X110128857Y-89902319D02*
X110152666Y-89926128D01*
X110581238Y-90045176D02*
X110581238Y-90378509D01*
X110462190Y-89854700D02*
X110343143Y-90211842D01*
X110343143Y-90211842D02*
X110652666Y-90211842D01*
X122106571Y-84796009D02*
X121939905Y-84557914D01*
X121820857Y-84796009D02*
X121820857Y-84296009D01*
X121820857Y-84296009D02*
X122011333Y-84296009D01*
X122011333Y-84296009D02*
X122058952Y-84319819D01*
X122058952Y-84319819D02*
X122082762Y-84343628D01*
X122082762Y-84343628D02*
X122106571Y-84391247D01*
X122106571Y-84391247D02*
X122106571Y-84462676D01*
X122106571Y-84462676D02*
X122082762Y-84510295D01*
X122082762Y-84510295D02*
X122058952Y-84534104D01*
X122058952Y-84534104D02*
X122011333Y-84557914D01*
X122011333Y-84557914D02*
X121820857Y-84557914D01*
X122582762Y-84796009D02*
X122297048Y-84796009D01*
X122439905Y-84796009D02*
X122439905Y-84296009D01*
X122439905Y-84296009D02*
X122392286Y-84367438D01*
X122392286Y-84367438D02*
X122344667Y-84415057D01*
X122344667Y-84415057D02*
X122297048Y-84438866D01*
X123058952Y-84796009D02*
X122773238Y-84796009D01*
X122916095Y-84796009D02*
X122916095Y-84296009D01*
X122916095Y-84296009D02*
X122868476Y-84367438D01*
X122868476Y-84367438D02*
X122820857Y-84415057D01*
X122820857Y-84415057D02*
X122773238Y-84438866D01*
X114978666Y-84828009D02*
X114812000Y-84589914D01*
X114692952Y-84828009D02*
X114692952Y-84328009D01*
X114692952Y-84328009D02*
X114883428Y-84328009D01*
X114883428Y-84328009D02*
X114931047Y-84351819D01*
X114931047Y-84351819D02*
X114954857Y-84375628D01*
X114954857Y-84375628D02*
X114978666Y-84423247D01*
X114978666Y-84423247D02*
X114978666Y-84494676D01*
X114978666Y-84494676D02*
X114954857Y-84542295D01*
X114954857Y-84542295D02*
X114931047Y-84566104D01*
X114931047Y-84566104D02*
X114883428Y-84589914D01*
X114883428Y-84589914D02*
X114692952Y-84589914D01*
X115216762Y-84828009D02*
X115312000Y-84828009D01*
X115312000Y-84828009D02*
X115359619Y-84804200D01*
X115359619Y-84804200D02*
X115383428Y-84780390D01*
X115383428Y-84780390D02*
X115431047Y-84708961D01*
X115431047Y-84708961D02*
X115454857Y-84613723D01*
X115454857Y-84613723D02*
X115454857Y-84423247D01*
X115454857Y-84423247D02*
X115431047Y-84375628D01*
X115431047Y-84375628D02*
X115407238Y-84351819D01*
X115407238Y-84351819D02*
X115359619Y-84328009D01*
X115359619Y-84328009D02*
X115264381Y-84328009D01*
X115264381Y-84328009D02*
X115216762Y-84351819D01*
X115216762Y-84351819D02*
X115192952Y-84375628D01*
X115192952Y-84375628D02*
X115169143Y-84423247D01*
X115169143Y-84423247D02*
X115169143Y-84542295D01*
X115169143Y-84542295D02*
X115192952Y-84589914D01*
X115192952Y-84589914D02*
X115216762Y-84613723D01*
X115216762Y-84613723D02*
X115264381Y-84637533D01*
X115264381Y-84637533D02*
X115359619Y-84637533D01*
X115359619Y-84637533D02*
X115407238Y-84613723D01*
X115407238Y-84613723D02*
X115431047Y-84589914D01*
X115431047Y-84589914D02*
X115454857Y-84542295D01*
X122106571Y-79478009D02*
X121939905Y-79239914D01*
X121820857Y-79478009D02*
X121820857Y-78978009D01*
X121820857Y-78978009D02*
X122011333Y-78978009D01*
X122011333Y-78978009D02*
X122058952Y-79001819D01*
X122058952Y-79001819D02*
X122082762Y-79025628D01*
X122082762Y-79025628D02*
X122106571Y-79073247D01*
X122106571Y-79073247D02*
X122106571Y-79144676D01*
X122106571Y-79144676D02*
X122082762Y-79192295D01*
X122082762Y-79192295D02*
X122058952Y-79216104D01*
X122058952Y-79216104D02*
X122011333Y-79239914D01*
X122011333Y-79239914D02*
X121820857Y-79239914D01*
X122582762Y-79478009D02*
X122297048Y-79478009D01*
X122439905Y-79478009D02*
X122439905Y-78978009D01*
X122439905Y-78978009D02*
X122392286Y-79049438D01*
X122392286Y-79049438D02*
X122344667Y-79097057D01*
X122344667Y-79097057D02*
X122297048Y-79120866D01*
X122892285Y-78978009D02*
X122939904Y-78978009D01*
X122939904Y-78978009D02*
X122987523Y-79001819D01*
X122987523Y-79001819D02*
X123011333Y-79025628D01*
X123011333Y-79025628D02*
X123035142Y-79073247D01*
X123035142Y-79073247D02*
X123058952Y-79168485D01*
X123058952Y-79168485D02*
X123058952Y-79287533D01*
X123058952Y-79287533D02*
X123035142Y-79382771D01*
X123035142Y-79382771D02*
X123011333Y-79430390D01*
X123011333Y-79430390D02*
X122987523Y-79454200D01*
X122987523Y-79454200D02*
X122939904Y-79478009D01*
X122939904Y-79478009D02*
X122892285Y-79478009D01*
X122892285Y-79478009D02*
X122844666Y-79454200D01*
X122844666Y-79454200D02*
X122820857Y-79430390D01*
X122820857Y-79430390D02*
X122797047Y-79382771D01*
X122797047Y-79382771D02*
X122773238Y-79287533D01*
X122773238Y-79287533D02*
X122773238Y-79168485D01*
X122773238Y-79168485D02*
X122797047Y-79073247D01*
X122797047Y-79073247D02*
X122820857Y-79025628D01*
X122820857Y-79025628D02*
X122844666Y-79001819D01*
X122844666Y-79001819D02*
X122892285Y-78978009D01*
X108120666Y-82780009D02*
X107954000Y-82541914D01*
X107834952Y-82780009D02*
X107834952Y-82280009D01*
X107834952Y-82280009D02*
X108025428Y-82280009D01*
X108025428Y-82280009D02*
X108073047Y-82303819D01*
X108073047Y-82303819D02*
X108096857Y-82327628D01*
X108096857Y-82327628D02*
X108120666Y-82375247D01*
X108120666Y-82375247D02*
X108120666Y-82446676D01*
X108120666Y-82446676D02*
X108096857Y-82494295D01*
X108096857Y-82494295D02*
X108073047Y-82518104D01*
X108073047Y-82518104D02*
X108025428Y-82541914D01*
X108025428Y-82541914D02*
X107834952Y-82541914D01*
X108549238Y-82280009D02*
X108454000Y-82280009D01*
X108454000Y-82280009D02*
X108406381Y-82303819D01*
X108406381Y-82303819D02*
X108382571Y-82327628D01*
X108382571Y-82327628D02*
X108334952Y-82399057D01*
X108334952Y-82399057D02*
X108311143Y-82494295D01*
X108311143Y-82494295D02*
X108311143Y-82684771D01*
X108311143Y-82684771D02*
X108334952Y-82732390D01*
X108334952Y-82732390D02*
X108358762Y-82756200D01*
X108358762Y-82756200D02*
X108406381Y-82780009D01*
X108406381Y-82780009D02*
X108501619Y-82780009D01*
X108501619Y-82780009D02*
X108549238Y-82756200D01*
X108549238Y-82756200D02*
X108573047Y-82732390D01*
X108573047Y-82732390D02*
X108596857Y-82684771D01*
X108596857Y-82684771D02*
X108596857Y-82565723D01*
X108596857Y-82565723D02*
X108573047Y-82518104D01*
X108573047Y-82518104D02*
X108549238Y-82494295D01*
X108549238Y-82494295D02*
X108501619Y-82470485D01*
X108501619Y-82470485D02*
X108406381Y-82470485D01*
X108406381Y-82470485D02*
X108358762Y-82494295D01*
X108358762Y-82494295D02*
X108334952Y-82518104D01*
X108334952Y-82518104D02*
X108311143Y-82565723D01*
X108120666Y-90400009D02*
X107954000Y-90161914D01*
X107834952Y-90400009D02*
X107834952Y-89900009D01*
X107834952Y-89900009D02*
X108025428Y-89900009D01*
X108025428Y-89900009D02*
X108073047Y-89923819D01*
X108073047Y-89923819D02*
X108096857Y-89947628D01*
X108096857Y-89947628D02*
X108120666Y-89995247D01*
X108120666Y-89995247D02*
X108120666Y-90066676D01*
X108120666Y-90066676D02*
X108096857Y-90114295D01*
X108096857Y-90114295D02*
X108073047Y-90138104D01*
X108073047Y-90138104D02*
X108025428Y-90161914D01*
X108025428Y-90161914D02*
X107834952Y-90161914D01*
X108406381Y-90114295D02*
X108358762Y-90090485D01*
X108358762Y-90090485D02*
X108334952Y-90066676D01*
X108334952Y-90066676D02*
X108311143Y-90019057D01*
X108311143Y-90019057D02*
X108311143Y-89995247D01*
X108311143Y-89995247D02*
X108334952Y-89947628D01*
X108334952Y-89947628D02*
X108358762Y-89923819D01*
X108358762Y-89923819D02*
X108406381Y-89900009D01*
X108406381Y-89900009D02*
X108501619Y-89900009D01*
X108501619Y-89900009D02*
X108549238Y-89923819D01*
X108549238Y-89923819D02*
X108573047Y-89947628D01*
X108573047Y-89947628D02*
X108596857Y-89995247D01*
X108596857Y-89995247D02*
X108596857Y-90019057D01*
X108596857Y-90019057D02*
X108573047Y-90066676D01*
X108573047Y-90066676D02*
X108549238Y-90090485D01*
X108549238Y-90090485D02*
X108501619Y-90114295D01*
X108501619Y-90114295D02*
X108406381Y-90114295D01*
X108406381Y-90114295D02*
X108358762Y-90138104D01*
X108358762Y-90138104D02*
X108334952Y-90161914D01*
X108334952Y-90161914D02*
X108311143Y-90209533D01*
X108311143Y-90209533D02*
X108311143Y-90304771D01*
X108311143Y-90304771D02*
X108334952Y-90352390D01*
X108334952Y-90352390D02*
X108358762Y-90376200D01*
X108358762Y-90376200D02*
X108406381Y-90400009D01*
X108406381Y-90400009D02*
X108501619Y-90400009D01*
X108501619Y-90400009D02*
X108549238Y-90376200D01*
X108549238Y-90376200D02*
X108573047Y-90352390D01*
X108573047Y-90352390D02*
X108596857Y-90304771D01*
X108596857Y-90304771D02*
X108596857Y-90209533D01*
X108596857Y-90209533D02*
X108573047Y-90161914D01*
X108573047Y-90161914D02*
X108549238Y-90138104D01*
X108549238Y-90138104D02*
X108501619Y-90114295D01*
X128604390Y-84502762D02*
X128628200Y-84526571D01*
X128628200Y-84526571D02*
X128652009Y-84598000D01*
X128652009Y-84598000D02*
X128652009Y-84645619D01*
X128652009Y-84645619D02*
X128628200Y-84717047D01*
X128628200Y-84717047D02*
X128580580Y-84764666D01*
X128580580Y-84764666D02*
X128532961Y-84788476D01*
X128532961Y-84788476D02*
X128437723Y-84812285D01*
X128437723Y-84812285D02*
X128366295Y-84812285D01*
X128366295Y-84812285D02*
X128271057Y-84788476D01*
X128271057Y-84788476D02*
X128223438Y-84764666D01*
X128223438Y-84764666D02*
X128175819Y-84717047D01*
X128175819Y-84717047D02*
X128152009Y-84645619D01*
X128152009Y-84645619D02*
X128152009Y-84598000D01*
X128152009Y-84598000D02*
X128175819Y-84526571D01*
X128175819Y-84526571D02*
X128199628Y-84502762D01*
X128152009Y-84336095D02*
X128152009Y-84002762D01*
X128152009Y-84002762D02*
X128652009Y-84217047D01*
X106088666Y-86590009D02*
X105922000Y-86351914D01*
X105802952Y-86590009D02*
X105802952Y-86090009D01*
X105802952Y-86090009D02*
X105993428Y-86090009D01*
X105993428Y-86090009D02*
X106041047Y-86113819D01*
X106041047Y-86113819D02*
X106064857Y-86137628D01*
X106064857Y-86137628D02*
X106088666Y-86185247D01*
X106088666Y-86185247D02*
X106088666Y-86256676D01*
X106088666Y-86256676D02*
X106064857Y-86304295D01*
X106064857Y-86304295D02*
X106041047Y-86328104D01*
X106041047Y-86328104D02*
X105993428Y-86351914D01*
X105993428Y-86351914D02*
X105802952Y-86351914D01*
X106255333Y-86090009D02*
X106564857Y-86090009D01*
X106564857Y-86090009D02*
X106398190Y-86280485D01*
X106398190Y-86280485D02*
X106469619Y-86280485D01*
X106469619Y-86280485D02*
X106517238Y-86304295D01*
X106517238Y-86304295D02*
X106541047Y-86328104D01*
X106541047Y-86328104D02*
X106564857Y-86375723D01*
X106564857Y-86375723D02*
X106564857Y-86494771D01*
X106564857Y-86494771D02*
X106541047Y-86542390D01*
X106541047Y-86542390D02*
X106517238Y-86566200D01*
X106517238Y-86566200D02*
X106469619Y-86590009D01*
X106469619Y-86590009D02*
X106326762Y-86590009D01*
X106326762Y-86590009D02*
X106279143Y-86566200D01*
X106279143Y-86566200D02*
X106255333Y-86542390D01*
X116589843Y-89476242D02*
X116613653Y-89500051D01*
X116613653Y-89500051D02*
X116637462Y-89571480D01*
X116637462Y-89571480D02*
X116637462Y-89619099D01*
X116637462Y-89619099D02*
X116613653Y-89690527D01*
X116613653Y-89690527D02*
X116566033Y-89738146D01*
X116566033Y-89738146D02*
X116518414Y-89761956D01*
X116518414Y-89761956D02*
X116423176Y-89785765D01*
X116423176Y-89785765D02*
X116351748Y-89785765D01*
X116351748Y-89785765D02*
X116256510Y-89761956D01*
X116256510Y-89761956D02*
X116208891Y-89738146D01*
X116208891Y-89738146D02*
X116161272Y-89690527D01*
X116161272Y-89690527D02*
X116137462Y-89619099D01*
X116137462Y-89619099D02*
X116137462Y-89571480D01*
X116137462Y-89571480D02*
X116161272Y-89500051D01*
X116161272Y-89500051D02*
X116185081Y-89476242D01*
X116637462Y-89238146D02*
X116637462Y-89142908D01*
X116637462Y-89142908D02*
X116613653Y-89095289D01*
X116613653Y-89095289D02*
X116589843Y-89071480D01*
X116589843Y-89071480D02*
X116518414Y-89023861D01*
X116518414Y-89023861D02*
X116423176Y-89000051D01*
X116423176Y-89000051D02*
X116232700Y-89000051D01*
X116232700Y-89000051D02*
X116185081Y-89023861D01*
X116185081Y-89023861D02*
X116161272Y-89047670D01*
X116161272Y-89047670D02*
X116137462Y-89095289D01*
X116137462Y-89095289D02*
X116137462Y-89190527D01*
X116137462Y-89190527D02*
X116161272Y-89238146D01*
X116161272Y-89238146D02*
X116185081Y-89261956D01*
X116185081Y-89261956D02*
X116232700Y-89285765D01*
X116232700Y-89285765D02*
X116351748Y-89285765D01*
X116351748Y-89285765D02*
X116399367Y-89261956D01*
X116399367Y-89261956D02*
X116423176Y-89238146D01*
X116423176Y-89238146D02*
X116446986Y-89190527D01*
X116446986Y-89190527D02*
X116446986Y-89095289D01*
X116446986Y-89095289D02*
X116423176Y-89047670D01*
X116423176Y-89047670D02*
X116399367Y-89023861D01*
X116399367Y-89023861D02*
X116351748Y-89000051D01*
X112692666Y-84764390D02*
X112668857Y-84788200D01*
X112668857Y-84788200D02*
X112597428Y-84812009D01*
X112597428Y-84812009D02*
X112549809Y-84812009D01*
X112549809Y-84812009D02*
X112478381Y-84788200D01*
X112478381Y-84788200D02*
X112430762Y-84740580D01*
X112430762Y-84740580D02*
X112406952Y-84692961D01*
X112406952Y-84692961D02*
X112383143Y-84597723D01*
X112383143Y-84597723D02*
X112383143Y-84526295D01*
X112383143Y-84526295D02*
X112406952Y-84431057D01*
X112406952Y-84431057D02*
X112430762Y-84383438D01*
X112430762Y-84383438D02*
X112478381Y-84335819D01*
X112478381Y-84335819D02*
X112549809Y-84312009D01*
X112549809Y-84312009D02*
X112597428Y-84312009D01*
X112597428Y-84312009D02*
X112668857Y-84335819D01*
X112668857Y-84335819D02*
X112692666Y-84359628D01*
X113145047Y-84312009D02*
X112906952Y-84312009D01*
X112906952Y-84312009D02*
X112883143Y-84550104D01*
X112883143Y-84550104D02*
X112906952Y-84526295D01*
X112906952Y-84526295D02*
X112954571Y-84502485D01*
X112954571Y-84502485D02*
X113073619Y-84502485D01*
X113073619Y-84502485D02*
X113121238Y-84526295D01*
X113121238Y-84526295D02*
X113145047Y-84550104D01*
X113145047Y-84550104D02*
X113168857Y-84597723D01*
X113168857Y-84597723D02*
X113168857Y-84716771D01*
X113168857Y-84716771D02*
X113145047Y-84764390D01*
X113145047Y-84764390D02*
X113121238Y-84788200D01*
X113121238Y-84788200D02*
X113073619Y-84812009D01*
X113073619Y-84812009D02*
X112954571Y-84812009D01*
X112954571Y-84812009D02*
X112906952Y-84788200D01*
X112906952Y-84788200D02*
X112883143Y-84764390D01*
X108120666Y-86590009D02*
X107954000Y-86351914D01*
X107834952Y-86590009D02*
X107834952Y-86090009D01*
X107834952Y-86090009D02*
X108025428Y-86090009D01*
X108025428Y-86090009D02*
X108073047Y-86113819D01*
X108073047Y-86113819D02*
X108096857Y-86137628D01*
X108096857Y-86137628D02*
X108120666Y-86185247D01*
X108120666Y-86185247D02*
X108120666Y-86256676D01*
X108120666Y-86256676D02*
X108096857Y-86304295D01*
X108096857Y-86304295D02*
X108073047Y-86328104D01*
X108073047Y-86328104D02*
X108025428Y-86351914D01*
X108025428Y-86351914D02*
X107834952Y-86351914D01*
X108287333Y-86090009D02*
X108620666Y-86090009D01*
X108620666Y-86090009D02*
X108406381Y-86590009D01*
X128604390Y-89491333D02*
X128628200Y-89515142D01*
X128628200Y-89515142D02*
X128652009Y-89586571D01*
X128652009Y-89586571D02*
X128652009Y-89634190D01*
X128652009Y-89634190D02*
X128628200Y-89705618D01*
X128628200Y-89705618D02*
X128580580Y-89753237D01*
X128580580Y-89753237D02*
X128532961Y-89777047D01*
X128532961Y-89777047D02*
X128437723Y-89800856D01*
X128437723Y-89800856D02*
X128366295Y-89800856D01*
X128366295Y-89800856D02*
X128271057Y-89777047D01*
X128271057Y-89777047D02*
X128223438Y-89753237D01*
X128223438Y-89753237D02*
X128175819Y-89705618D01*
X128175819Y-89705618D02*
X128152009Y-89634190D01*
X128152009Y-89634190D02*
X128152009Y-89586571D01*
X128152009Y-89586571D02*
X128175819Y-89515142D01*
X128175819Y-89515142D02*
X128199628Y-89491333D01*
X128366295Y-89205618D02*
X128342485Y-89253237D01*
X128342485Y-89253237D02*
X128318676Y-89277047D01*
X128318676Y-89277047D02*
X128271057Y-89300856D01*
X128271057Y-89300856D02*
X128247247Y-89300856D01*
X128247247Y-89300856D02*
X128199628Y-89277047D01*
X128199628Y-89277047D02*
X128175819Y-89253237D01*
X128175819Y-89253237D02*
X128152009Y-89205618D01*
X128152009Y-89205618D02*
X128152009Y-89110380D01*
X128152009Y-89110380D02*
X128175819Y-89062761D01*
X128175819Y-89062761D02*
X128199628Y-89038952D01*
X128199628Y-89038952D02*
X128247247Y-89015142D01*
X128247247Y-89015142D02*
X128271057Y-89015142D01*
X128271057Y-89015142D02*
X128318676Y-89038952D01*
X128318676Y-89038952D02*
X128342485Y-89062761D01*
X128342485Y-89062761D02*
X128366295Y-89110380D01*
X128366295Y-89110380D02*
X128366295Y-89205618D01*
X128366295Y-89205618D02*
X128390104Y-89253237D01*
X128390104Y-89253237D02*
X128413914Y-89277047D01*
X128413914Y-89277047D02*
X128461533Y-89300856D01*
X128461533Y-89300856D02*
X128556771Y-89300856D01*
X128556771Y-89300856D02*
X128604390Y-89277047D01*
X128604390Y-89277047D02*
X128628200Y-89253237D01*
X128628200Y-89253237D02*
X128652009Y-89205618D01*
X128652009Y-89205618D02*
X128652009Y-89110380D01*
X128652009Y-89110380D02*
X128628200Y-89062761D01*
X128628200Y-89062761D02*
X128604390Y-89038952D01*
X128604390Y-89038952D02*
X128556771Y-89015142D01*
X128556771Y-89015142D02*
X128461533Y-89015142D01*
X128461533Y-89015142D02*
X128413914Y-89038952D01*
X128413914Y-89038952D02*
X128390104Y-89062761D01*
X128390104Y-89062761D02*
X128366295Y-89110380D01*
X128604390Y-79514190D02*
X128628200Y-79537999D01*
X128628200Y-79537999D02*
X128652009Y-79609428D01*
X128652009Y-79609428D02*
X128652009Y-79657047D01*
X128652009Y-79657047D02*
X128628200Y-79728475D01*
X128628200Y-79728475D02*
X128580580Y-79776094D01*
X128580580Y-79776094D02*
X128532961Y-79799904D01*
X128532961Y-79799904D02*
X128437723Y-79823713D01*
X128437723Y-79823713D02*
X128366295Y-79823713D01*
X128366295Y-79823713D02*
X128271057Y-79799904D01*
X128271057Y-79799904D02*
X128223438Y-79776094D01*
X128223438Y-79776094D02*
X128175819Y-79728475D01*
X128175819Y-79728475D02*
X128152009Y-79657047D01*
X128152009Y-79657047D02*
X128152009Y-79609428D01*
X128152009Y-79609428D02*
X128175819Y-79537999D01*
X128175819Y-79537999D02*
X128199628Y-79514190D01*
X128152009Y-79085618D02*
X128152009Y-79180856D01*
X128152009Y-79180856D02*
X128175819Y-79228475D01*
X128175819Y-79228475D02*
X128199628Y-79252285D01*
X128199628Y-79252285D02*
X128271057Y-79299904D01*
X128271057Y-79299904D02*
X128366295Y-79323713D01*
X128366295Y-79323713D02*
X128556771Y-79323713D01*
X128556771Y-79323713D02*
X128604390Y-79299904D01*
X128604390Y-79299904D02*
X128628200Y-79276094D01*
X128628200Y-79276094D02*
X128652009Y-79228475D01*
X128652009Y-79228475D02*
X128652009Y-79133237D01*
X128652009Y-79133237D02*
X128628200Y-79085618D01*
X128628200Y-79085618D02*
X128604390Y-79061809D01*
X128604390Y-79061809D02*
X128556771Y-79037999D01*
X128556771Y-79037999D02*
X128437723Y-79037999D01*
X128437723Y-79037999D02*
X128390104Y-79061809D01*
X128390104Y-79061809D02*
X128366295Y-79085618D01*
X128366295Y-79085618D02*
X128342485Y-79133237D01*
X128342485Y-79133237D02*
X128342485Y-79228475D01*
X128342485Y-79228475D02*
X128366295Y-79276094D01*
X128366295Y-79276094D02*
X128390104Y-79299904D01*
X128390104Y-79299904D02*
X128437723Y-79323713D01*
X110152666Y-82732390D02*
X110128857Y-82756200D01*
X110128857Y-82756200D02*
X110057428Y-82780009D01*
X110057428Y-82780009D02*
X110009809Y-82780009D01*
X110009809Y-82780009D02*
X109938381Y-82756200D01*
X109938381Y-82756200D02*
X109890762Y-82708580D01*
X109890762Y-82708580D02*
X109866952Y-82660961D01*
X109866952Y-82660961D02*
X109843143Y-82565723D01*
X109843143Y-82565723D02*
X109843143Y-82494295D01*
X109843143Y-82494295D02*
X109866952Y-82399057D01*
X109866952Y-82399057D02*
X109890762Y-82351438D01*
X109890762Y-82351438D02*
X109938381Y-82303819D01*
X109938381Y-82303819D02*
X110009809Y-82280009D01*
X110009809Y-82280009D02*
X110057428Y-82280009D01*
X110057428Y-82280009D02*
X110128857Y-82303819D01*
X110128857Y-82303819D02*
X110152666Y-82327628D01*
X110343143Y-82327628D02*
X110366952Y-82303819D01*
X110366952Y-82303819D02*
X110414571Y-82280009D01*
X110414571Y-82280009D02*
X110533619Y-82280009D01*
X110533619Y-82280009D02*
X110581238Y-82303819D01*
X110581238Y-82303819D02*
X110605047Y-82327628D01*
X110605047Y-82327628D02*
X110628857Y-82375247D01*
X110628857Y-82375247D02*
X110628857Y-82422866D01*
X110628857Y-82422866D02*
X110605047Y-82494295D01*
X110605047Y-82494295D02*
X110319333Y-82780009D01*
X110319333Y-82780009D02*
X110628857Y-82780009D01*
X110152666Y-78922390D02*
X110128857Y-78946200D01*
X110128857Y-78946200D02*
X110057428Y-78970009D01*
X110057428Y-78970009D02*
X110009809Y-78970009D01*
X110009809Y-78970009D02*
X109938381Y-78946200D01*
X109938381Y-78946200D02*
X109890762Y-78898580D01*
X109890762Y-78898580D02*
X109866952Y-78850961D01*
X109866952Y-78850961D02*
X109843143Y-78755723D01*
X109843143Y-78755723D02*
X109843143Y-78684295D01*
X109843143Y-78684295D02*
X109866952Y-78589057D01*
X109866952Y-78589057D02*
X109890762Y-78541438D01*
X109890762Y-78541438D02*
X109938381Y-78493819D01*
X109938381Y-78493819D02*
X110009809Y-78470009D01*
X110009809Y-78470009D02*
X110057428Y-78470009D01*
X110057428Y-78470009D02*
X110128857Y-78493819D01*
X110128857Y-78493819D02*
X110152666Y-78517628D01*
X110628857Y-78970009D02*
X110343143Y-78970009D01*
X110486000Y-78970009D02*
X110486000Y-78470009D01*
X110486000Y-78470009D02*
X110438381Y-78541438D01*
X110438381Y-78541438D02*
X110390762Y-78589057D01*
X110390762Y-78589057D02*
X110343143Y-78612866D01*
X115443030Y-79231986D02*
X115443030Y-79636748D01*
X115443030Y-79636748D02*
X115466840Y-79684367D01*
X115466840Y-79684367D02*
X115490649Y-79708177D01*
X115490649Y-79708177D02*
X115538268Y-79731986D01*
X115538268Y-79731986D02*
X115633506Y-79731986D01*
X115633506Y-79731986D02*
X115681125Y-79708177D01*
X115681125Y-79708177D02*
X115704935Y-79684367D01*
X115704935Y-79684367D02*
X115728744Y-79636748D01*
X115728744Y-79636748D02*
X115728744Y-79231986D01*
X116228745Y-79731986D02*
X115943031Y-79731986D01*
X116085888Y-79731986D02*
X116085888Y-79231986D01*
X116085888Y-79231986D02*
X116038269Y-79303415D01*
X116038269Y-79303415D02*
X115990650Y-79351034D01*
X115990650Y-79351034D02*
X115943031Y-79374843D01*
X106088666Y-90400009D02*
X105922000Y-90161914D01*
X105802952Y-90400009D02*
X105802952Y-89900009D01*
X105802952Y-89900009D02*
X105993428Y-89900009D01*
X105993428Y-89900009D02*
X106041047Y-89923819D01*
X106041047Y-89923819D02*
X106064857Y-89947628D01*
X106064857Y-89947628D02*
X106088666Y-89995247D01*
X106088666Y-89995247D02*
X106088666Y-90066676D01*
X106088666Y-90066676D02*
X106064857Y-90114295D01*
X106064857Y-90114295D02*
X106041047Y-90138104D01*
X106041047Y-90138104D02*
X105993428Y-90161914D01*
X105993428Y-90161914D02*
X105802952Y-90161914D01*
X106517238Y-90066676D02*
X106517238Y-90400009D01*
X106398190Y-89876200D02*
X106279143Y-90233342D01*
X106279143Y-90233342D02*
X106588666Y-90233342D01*
X106088666Y-82780009D02*
X105922000Y-82541914D01*
X105802952Y-82780009D02*
X105802952Y-82280009D01*
X105802952Y-82280009D02*
X105993428Y-82280009D01*
X105993428Y-82280009D02*
X106041047Y-82303819D01*
X106041047Y-82303819D02*
X106064857Y-82327628D01*
X106064857Y-82327628D02*
X106088666Y-82375247D01*
X106088666Y-82375247D02*
X106088666Y-82446676D01*
X106088666Y-82446676D02*
X106064857Y-82494295D01*
X106064857Y-82494295D02*
X106041047Y-82518104D01*
X106041047Y-82518104D02*
X105993428Y-82541914D01*
X105993428Y-82541914D02*
X105802952Y-82541914D01*
X106279143Y-82327628D02*
X106302952Y-82303819D01*
X106302952Y-82303819D02*
X106350571Y-82280009D01*
X106350571Y-82280009D02*
X106469619Y-82280009D01*
X106469619Y-82280009D02*
X106517238Y-82303819D01*
X106517238Y-82303819D02*
X106541047Y-82327628D01*
X106541047Y-82327628D02*
X106564857Y-82375247D01*
X106564857Y-82375247D02*
X106564857Y-82422866D01*
X106564857Y-82422866D02*
X106541047Y-82494295D01*
X106541047Y-82494295D02*
X106255333Y-82780009D01*
X106255333Y-82780009D02*
X106564857Y-82780009D01*
X117185333Y-82250009D02*
X117185333Y-82607152D01*
X117185333Y-82607152D02*
X117161524Y-82678580D01*
X117161524Y-82678580D02*
X117113905Y-82726200D01*
X117113905Y-82726200D02*
X117042476Y-82750009D01*
X117042476Y-82750009D02*
X116994857Y-82750009D01*
X117423428Y-82750009D02*
X117423428Y-82250009D01*
X117423428Y-82250009D02*
X117613904Y-82250009D01*
X117613904Y-82250009D02*
X117661523Y-82273819D01*
X117661523Y-82273819D02*
X117685333Y-82297628D01*
X117685333Y-82297628D02*
X117709142Y-82345247D01*
X117709142Y-82345247D02*
X117709142Y-82416676D01*
X117709142Y-82416676D02*
X117685333Y-82464295D01*
X117685333Y-82464295D02*
X117661523Y-82488104D01*
X117661523Y-82488104D02*
X117613904Y-82511914D01*
X117613904Y-82511914D02*
X117423428Y-82511914D01*
X118185333Y-82750009D02*
X117899619Y-82750009D01*
X118042476Y-82750009D02*
X118042476Y-82250009D01*
X118042476Y-82250009D02*
X117994857Y-82321438D01*
X117994857Y-82321438D02*
X117947238Y-82369057D01*
X117947238Y-82369057D02*
X117899619Y-82392866D01*
D15*
%TO.C,R13*%
X119407000Y-84825064D02*
X119407000Y-84370936D01*
X120877000Y-84825064D02*
X120877000Y-84370936D01*
%TO.C,C3*%
X110971000Y-86077248D02*
X110971000Y-86599752D01*
X109501000Y-86077248D02*
X109501000Y-86599752D01*
%TO.C,R1*%
X105437000Y-78967064D02*
X105437000Y-78512936D01*
X106907000Y-78967064D02*
X106907000Y-78512936D01*
%TO.C,R5*%
X107469000Y-78983064D02*
X107469000Y-78528936D01*
X108939000Y-78983064D02*
X108939000Y-78528936D01*
%TO.C,R12*%
X121693000Y-89905064D02*
X121693000Y-89450936D01*
X123163000Y-89905064D02*
X123163000Y-89450936D01*
%TO.C,C4*%
X110971000Y-89887248D02*
X110971000Y-90409752D01*
X109501000Y-89887248D02*
X109501000Y-90409752D01*
%TO.C,R11*%
X121693000Y-84809064D02*
X121693000Y-84354936D01*
X123163000Y-84809064D02*
X123163000Y-84354936D01*
%TO.C,R9*%
X115797000Y-84370936D02*
X115797000Y-84825064D01*
X114327000Y-84370936D02*
X114327000Y-84825064D01*
%TO.C,R10*%
X121693000Y-79491064D02*
X121693000Y-79036936D01*
X123163000Y-79491064D02*
X123163000Y-79036936D01*
%TO.C,R6*%
X107469000Y-82793064D02*
X107469000Y-82338936D01*
X108939000Y-82793064D02*
X108939000Y-82338936D01*
%TO.C,R8*%
X107469000Y-90397064D02*
X107469000Y-89942936D01*
X108939000Y-90397064D02*
X108939000Y-89942936D01*
%TO.C,C7*%
X123939000Y-82195000D02*
X123939000Y-86715000D01*
X123939000Y-86715000D02*
X132174000Y-86715000D01*
X132174000Y-82195000D02*
X123939000Y-82195000D01*
%TO.C,R3*%
X105437000Y-86571064D02*
X105437000Y-86116936D01*
X106907000Y-86571064D02*
X106907000Y-86116936D01*
%TO.C,C9*%
X111899000Y-87148000D02*
X111899000Y-91668000D01*
X111899000Y-91668000D02*
X120134000Y-91668000D01*
X120134000Y-87148000D02*
X111899000Y-87148000D01*
%TO.C,C5*%
X113511000Y-84299248D02*
X113511000Y-84821752D01*
X112041000Y-84299248D02*
X112041000Y-84821752D01*
%TO.C,R7*%
X107469000Y-86603064D02*
X107469000Y-86148936D01*
X108939000Y-86603064D02*
X108939000Y-86148936D01*
%TO.C,C8*%
X132174000Y-87148000D02*
X123939000Y-87148000D01*
X123939000Y-91668000D02*
X132174000Y-91668000D01*
X123939000Y-87148000D02*
X123939000Y-91668000D01*
%TO.C,C6*%
X123939000Y-77242000D02*
X123939000Y-81762000D01*
X123939000Y-81762000D02*
X132174000Y-81762000D01*
X132174000Y-77242000D02*
X123939000Y-77242000D01*
%TO.C,C2*%
X110971000Y-82267248D02*
X110971000Y-82789752D01*
X109501000Y-82267248D02*
X109501000Y-82789752D01*
%TO.C,C1*%
X110971000Y-78457248D02*
X110971000Y-78979752D01*
X109501000Y-78457248D02*
X109501000Y-78979752D01*
%TO.C,U1*%
X116037500Y-77045800D02*
X112437500Y-77045800D01*
X116037500Y-77045800D02*
X118237500Y-77045800D01*
X116037500Y-82265800D02*
X113837500Y-82265800D01*
X116037500Y-82265800D02*
X118237500Y-82265800D01*
%TO.C,R4*%
X105437000Y-90413064D02*
X105437000Y-89958936D01*
X106907000Y-90413064D02*
X106907000Y-89958936D01*
%TO.C,R2*%
X105437000Y-82793064D02*
X105437000Y-82338936D01*
X106907000Y-82793064D02*
X106907000Y-82338936D01*
%TD*%
M02*
