%TF.GenerationSoftware,KiCad,Pcbnew,7.0.6*%
%TF.CreationDate,2023-08-20T14:40:53+02:00*%
%TF.ProjectId,pcergb,70636572-6762-42e6-9b69-6361645f7063,rev?*%
%TF.SameCoordinates,Original*%
%TF.FileFunction,Copper,L2,Bot*%
%TF.FilePolarity,Positive*%
%FSLAX46Y46*%
G04 Gerber Fmt 4.6, Leading zero omitted, Abs format (unit mm)*
G04 Created by KiCad (PCBNEW 7.0.6) date 2023-08-20 14:40:53*
%MOMM*%
%LPD*%
G01*
G04 APERTURE LIST*
%TA.AperFunction,ViaPad*%
%ADD10C,0.600000*%
%TD*%
%TA.AperFunction,Conductor*%
%ADD11C,0.250000*%
%TD*%
%TA.AperFunction,Conductor*%
%ADD12C,0.300000*%
%TD*%
%TA.AperFunction,Conductor*%
%ADD13C,0.450000*%
%TD*%
%TA.AperFunction,Conductor*%
%ADD14C,0.500000*%
%TD*%
G04 APERTURE END LIST*
D10*
%TO.N,Net-(U1-CH3_IN)*%
X114439000Y-78601000D03*
X111330800Y-86283300D03*
%TO.N,Net-(U1-CH4_IN)*%
X112014000Y-86929600D03*
X111877000Y-81068236D03*
%TO.N,+5V*%
X111248200Y-78583500D03*
X111560100Y-90382100D03*
X103632000Y-90424000D03*
X109170700Y-80661000D03*
X109152300Y-86431200D03*
%TO.N,GND*%
X115062000Y-80772000D03*
X116586000Y-85090000D03*
X103632000Y-88138000D03*
%TO.N,Net-(U1-CH3_OUT)*%
X123663600Y-88383800D03*
X117231300Y-79554000D03*
%TD*%
D11*
%TO.N,Net-(U1-CH3_IN)*%
X111252000Y-86204500D02*
X111252000Y-80772000D01*
X111252000Y-80772000D02*
X113423000Y-78601000D01*
X113423000Y-78601000D02*
X114439000Y-78601000D01*
X111330800Y-86283300D02*
X111252000Y-86204500D01*
D12*
%TO.N,Net-(U1-CH4_IN)*%
X112014000Y-86929600D02*
X112014000Y-81205236D01*
X112014000Y-81205236D02*
X111877000Y-81068236D01*
D13*
%TO.N,+5V*%
X109152300Y-86431200D02*
X109152300Y-80679400D01*
X109152300Y-80679400D02*
X109170700Y-80661000D01*
X104418900Y-89637100D02*
X103632000Y-90424000D01*
X110815100Y-89637100D02*
X111560100Y-90382100D01*
X109170700Y-80661000D02*
X111248200Y-78583500D01*
X109152300Y-89637100D02*
X110815100Y-89637100D01*
X109152300Y-89637100D02*
X109152300Y-86431200D01*
X109152300Y-89637100D02*
X104418900Y-89637100D01*
D14*
%TO.N,GND*%
X103632000Y-88138000D02*
X103632000Y-88134000D01*
X103632000Y-85139039D02*
X103632000Y-88138000D01*
X116586000Y-82296000D02*
X115062000Y-80772000D01*
X114622661Y-77724000D02*
X111047039Y-77724000D01*
X115062000Y-80772000D02*
X115316000Y-80518000D01*
X115316000Y-80518000D02*
X115316000Y-78417339D01*
X111047039Y-77724000D02*
X103632000Y-85139039D01*
X116586000Y-85090000D02*
X116586000Y-82296000D01*
X115316000Y-78417339D02*
X114622661Y-77724000D01*
D11*
%TO.N,Net-(U1-CH3_OUT)*%
X117231300Y-79554000D02*
X123663600Y-85986300D01*
X123663600Y-85986300D02*
X123663600Y-88383800D01*
%TD*%
%TA.AperFunction,Conductor*%
%TO.N,GND*%
G36*
X136519539Y-76803185D02*
G01*
X136565294Y-76855989D01*
X136576500Y-76907500D01*
X136576500Y-91908590D01*
X136556815Y-91975629D01*
X136504011Y-92021384D01*
X136452500Y-92032590D01*
X101341177Y-92032590D01*
X101274138Y-92012905D01*
X101228383Y-91960101D01*
X101217177Y-91908590D01*
X101217177Y-90424003D01*
X102818384Y-90424003D01*
X102838781Y-90605041D01*
X102838782Y-90605046D01*
X102851062Y-90640139D01*
X102898957Y-90777015D01*
X102995889Y-90931281D01*
X103124719Y-91060111D01*
X103278985Y-91157043D01*
X103450953Y-91217216D01*
X103450953Y-91217217D01*
X103450958Y-91217218D01*
X103631996Y-91237616D01*
X103632000Y-91237616D01*
X103632004Y-91237616D01*
X103813041Y-91217218D01*
X103813044Y-91217217D01*
X103813047Y-91217217D01*
X103985015Y-91157043D01*
X104139281Y-91060111D01*
X104268111Y-90931281D01*
X104365043Y-90777015D01*
X104381925Y-90728766D01*
X104411284Y-90682040D01*
X104686406Y-90406918D01*
X104747729Y-90373434D01*
X104774087Y-90370600D01*
X109066566Y-90370600D01*
X109129158Y-90370600D01*
X109132757Y-90370704D01*
X109195240Y-90374344D01*
X109204849Y-90372649D01*
X109205789Y-90372484D01*
X109227321Y-90370600D01*
X110459912Y-90370600D01*
X110526951Y-90390285D01*
X110547593Y-90406919D01*
X110780813Y-90640139D01*
X110810173Y-90686864D01*
X110827057Y-90735116D01*
X110827058Y-90735117D01*
X110853386Y-90777017D01*
X110923989Y-90889381D01*
X111052819Y-91018211D01*
X111207085Y-91115143D01*
X111379053Y-91175316D01*
X111379053Y-91175317D01*
X111379058Y-91175318D01*
X111560096Y-91195716D01*
X111560100Y-91195716D01*
X111560104Y-91195716D01*
X111741141Y-91175318D01*
X111741144Y-91175317D01*
X111741147Y-91175317D01*
X111913115Y-91115143D01*
X112067381Y-91018211D01*
X112196211Y-90889381D01*
X112293143Y-90735115D01*
X112353317Y-90563147D01*
X112368995Y-90424000D01*
X112373716Y-90382103D01*
X112373716Y-90382096D01*
X112353318Y-90201058D01*
X112353317Y-90201053D01*
X112307803Y-90070982D01*
X112293143Y-90029085D01*
X112196211Y-89874819D01*
X112067381Y-89745989D01*
X111979800Y-89690958D01*
X111913117Y-89649058D01*
X111913116Y-89649057D01*
X111864864Y-89632173D01*
X111818139Y-89602813D01*
X111377931Y-89162605D01*
X111366150Y-89148972D01*
X111352260Y-89130315D01*
X111313188Y-89097529D01*
X111309204Y-89093878D01*
X111303558Y-89088232D01*
X111303557Y-89088231D01*
X111278409Y-89068346D01*
X111220909Y-89020098D01*
X111220908Y-89020097D01*
X111214875Y-89016130D01*
X111214921Y-89016058D01*
X111208981Y-89012274D01*
X111208937Y-89012347D01*
X111202790Y-89008555D01*
X111134747Y-88976826D01*
X111067676Y-88943142D01*
X111060889Y-88940672D01*
X111060917Y-88940592D01*
X111054266Y-88938280D01*
X111054240Y-88938361D01*
X111047387Y-88936090D01*
X111020200Y-88930476D01*
X110973888Y-88920914D01*
X110926013Y-88909567D01*
X110900832Y-88903599D01*
X110893660Y-88902761D01*
X110893669Y-88902677D01*
X110886664Y-88901961D01*
X110886657Y-88902047D01*
X110879467Y-88901417D01*
X110804472Y-88903600D01*
X110009800Y-88903600D01*
X109942761Y-88883915D01*
X109897006Y-88831111D01*
X109885800Y-88779600D01*
X109885800Y-86803977D01*
X109892758Y-86763023D01*
X109945517Y-86612247D01*
X109959494Y-86488198D01*
X109965916Y-86431203D01*
X109965916Y-86431196D01*
X109945518Y-86250158D01*
X109945517Y-86250153D01*
X109892758Y-86099376D01*
X109885800Y-86058421D01*
X109885800Y-81078295D01*
X109902294Y-81021048D01*
X109900721Y-81020291D01*
X109903744Y-81014012D01*
X109920625Y-80965766D01*
X109949984Y-80919040D01*
X110450491Y-80418533D01*
X110511813Y-80385049D01*
X110581505Y-80390033D01*
X110637438Y-80431905D01*
X110661855Y-80497369D01*
X110658275Y-80537053D01*
X110653226Y-80556717D01*
X110646925Y-80575122D01*
X110638818Y-80593857D01*
X110631431Y-80640495D01*
X110630246Y-80646216D01*
X110618500Y-80691965D01*
X110618500Y-80712384D01*
X110616973Y-80731784D01*
X110613779Y-80751941D01*
X110613779Y-80751942D01*
X110618224Y-80798963D01*
X110618499Y-80804800D01*
X110618499Y-85861549D01*
X110600539Y-85923898D01*
X110600777Y-85924013D01*
X110600104Y-85925408D01*
X110599499Y-85927512D01*
X110597757Y-85930283D01*
X110537582Y-86102253D01*
X110537581Y-86102258D01*
X110517184Y-86283296D01*
X110517184Y-86283303D01*
X110537581Y-86464341D01*
X110537582Y-86464346D01*
X110576856Y-86576584D01*
X110597757Y-86636315D01*
X110694689Y-86790581D01*
X110823519Y-86919411D01*
X110977785Y-87016343D01*
X111149753Y-87076517D01*
X111156326Y-87078817D01*
X111155670Y-87080690D01*
X111208122Y-87110021D01*
X111236604Y-87155861D01*
X111280957Y-87282616D01*
X111280958Y-87282617D01*
X111377889Y-87436881D01*
X111506719Y-87565711D01*
X111660985Y-87662643D01*
X111832953Y-87722816D01*
X111832953Y-87722817D01*
X111832958Y-87722818D01*
X112013996Y-87743216D01*
X112014000Y-87743216D01*
X112014004Y-87743216D01*
X112195041Y-87722818D01*
X112195044Y-87722817D01*
X112195047Y-87722817D01*
X112367015Y-87662643D01*
X112521281Y-87565711D01*
X112650111Y-87436881D01*
X112747043Y-87282615D01*
X112807217Y-87110647D01*
X112810199Y-87084184D01*
X112827616Y-86929603D01*
X112827616Y-86929596D01*
X112807218Y-86748558D01*
X112807217Y-86748553D01*
X112767943Y-86636315D01*
X112747043Y-86576585D01*
X112691506Y-86488198D01*
X112672500Y-86422226D01*
X112672500Y-81291623D01*
X112674282Y-81275485D01*
X112674054Y-81275464D01*
X112674786Y-81267705D01*
X112674788Y-81267699D01*
X112673618Y-81230486D01*
X112674337Y-81212709D01*
X112690616Y-81068238D01*
X112690616Y-81068232D01*
X112670218Y-80887194D01*
X112670217Y-80887189D01*
X112654418Y-80842038D01*
X112610043Y-80715221D01*
X112513111Y-80560955D01*
X112513110Y-80560954D01*
X112509406Y-80555059D01*
X112510709Y-80554239D01*
X112487397Y-80497145D01*
X112500150Y-80428449D01*
X112523068Y-80396835D01*
X113365901Y-79554003D01*
X116417684Y-79554003D01*
X116438081Y-79735041D01*
X116438082Y-79735046D01*
X116479249Y-79852693D01*
X116498257Y-79907015D01*
X116595189Y-80061281D01*
X116724019Y-80190111D01*
X116878285Y-80287043D01*
X117050253Y-80347217D01*
X117095447Y-80352309D01*
X117159859Y-80379374D01*
X117169244Y-80387848D01*
X122993781Y-86212385D01*
X123027266Y-86273708D01*
X123030100Y-86300066D01*
X123030100Y-87836639D01*
X123011094Y-87902611D01*
X122930558Y-88030782D01*
X122870382Y-88202753D01*
X122870381Y-88202758D01*
X122849984Y-88383796D01*
X122849984Y-88383803D01*
X122870381Y-88564841D01*
X122870382Y-88564846D01*
X122930558Y-88736817D01*
X122989807Y-88831111D01*
X123027489Y-88891081D01*
X123156319Y-89019911D01*
X123310585Y-89116843D01*
X123441366Y-89162605D01*
X123482553Y-89177017D01*
X123482558Y-89177018D01*
X123663596Y-89197416D01*
X123663600Y-89197416D01*
X123663604Y-89197416D01*
X123844641Y-89177018D01*
X123844644Y-89177017D01*
X123844647Y-89177017D01*
X124016615Y-89116843D01*
X124170881Y-89019911D01*
X124299711Y-88891081D01*
X124396643Y-88736815D01*
X124456817Y-88564847D01*
X124477216Y-88383800D01*
X124456817Y-88202753D01*
X124396643Y-88030785D01*
X124316106Y-87902611D01*
X124316105Y-87902609D01*
X124297099Y-87836637D01*
X124297099Y-86069936D01*
X124298839Y-86054183D01*
X124298567Y-86054158D01*
X124299300Y-86046399D01*
X124299302Y-86046391D01*
X124297100Y-85976328D01*
X124297100Y-85946444D01*
X124296214Y-85939441D01*
X124295757Y-85933622D01*
X124295455Y-85924013D01*
X124294274Y-85886411D01*
X124288576Y-85866799D01*
X124284633Y-85847766D01*
X124282074Y-85827503D01*
X124264685Y-85783586D01*
X124262796Y-85778066D01*
X124249618Y-85732707D01*
X124239226Y-85715135D01*
X124230666Y-85697662D01*
X124223152Y-85678683D01*
X124195394Y-85640479D01*
X124192187Y-85635596D01*
X124182473Y-85619171D01*
X124168142Y-85594938D01*
X124153708Y-85580504D01*
X124141071Y-85565709D01*
X124129072Y-85549193D01*
X124129070Y-85549190D01*
X124092673Y-85519081D01*
X124088351Y-85515147D01*
X118065147Y-79491943D01*
X118031662Y-79430620D01*
X118029610Y-79418162D01*
X118024517Y-79372953D01*
X117964343Y-79200985D01*
X117867411Y-79046719D01*
X117738581Y-78917889D01*
X117584315Y-78820957D01*
X117520885Y-78798762D01*
X117412346Y-78760782D01*
X117412341Y-78760781D01*
X117231304Y-78740384D01*
X117231296Y-78740384D01*
X117050258Y-78760781D01*
X117050253Y-78760782D01*
X116878282Y-78820958D01*
X116724018Y-78917889D01*
X116595189Y-79046718D01*
X116498258Y-79200982D01*
X116438082Y-79372953D01*
X116438081Y-79372958D01*
X116417684Y-79553996D01*
X116417684Y-79554003D01*
X113365901Y-79554003D01*
X113649085Y-79270819D01*
X113710408Y-79237334D01*
X113736766Y-79234500D01*
X113891840Y-79234500D01*
X113957812Y-79253507D01*
X114085977Y-79334039D01*
X114085980Y-79334041D01*
X114085984Y-79334042D01*
X114085985Y-79334043D01*
X114197178Y-79372951D01*
X114257953Y-79394217D01*
X114257958Y-79394218D01*
X114438996Y-79414616D01*
X114439000Y-79414616D01*
X114439004Y-79414616D01*
X114620041Y-79394218D01*
X114620044Y-79394217D01*
X114620047Y-79394217D01*
X114792015Y-79334043D01*
X114946281Y-79237111D01*
X115075111Y-79108281D01*
X115172043Y-78954015D01*
X115232217Y-78782047D01*
X115234613Y-78760781D01*
X115252616Y-78601003D01*
X115252616Y-78600996D01*
X115232218Y-78419958D01*
X115232217Y-78419953D01*
X115226095Y-78402458D01*
X115172043Y-78247985D01*
X115075111Y-78093719D01*
X114946281Y-77964889D01*
X114792015Y-77867957D01*
X114737693Y-77848949D01*
X114620046Y-77807782D01*
X114620041Y-77807781D01*
X114439004Y-77787384D01*
X114438996Y-77787384D01*
X114257958Y-77807781D01*
X114257953Y-77807782D01*
X114085980Y-77867958D01*
X114085977Y-77867960D01*
X113957812Y-77948493D01*
X113891840Y-77967500D01*
X113506632Y-77967500D01*
X113490880Y-77965760D01*
X113490855Y-77966032D01*
X113483093Y-77965298D01*
X113483092Y-77965298D01*
X113413029Y-77967500D01*
X113383144Y-77967500D01*
X113383141Y-77967500D01*
X113383129Y-77967501D01*
X113376137Y-77968384D01*
X113370320Y-77968841D01*
X113323111Y-77970325D01*
X113323109Y-77970326D01*
X113303496Y-77976023D01*
X113284459Y-77979965D01*
X113264208Y-77982524D01*
X113264202Y-77982526D01*
X113220299Y-77999907D01*
X113214775Y-78001798D01*
X113169406Y-78014981D01*
X113169401Y-78014983D01*
X113151827Y-78025376D01*
X113134362Y-78033932D01*
X113115387Y-78041445D01*
X113115385Y-78041446D01*
X113077176Y-78069206D01*
X113072294Y-78072412D01*
X113031635Y-78096458D01*
X113017200Y-78110894D01*
X113002412Y-78123525D01*
X112985894Y-78135526D01*
X112985888Y-78135532D01*
X112955780Y-78171925D01*
X112951849Y-78176246D01*
X112250496Y-78877597D01*
X112189173Y-78911082D01*
X112119481Y-78906098D01*
X112063548Y-78864226D01*
X112039131Y-78798762D01*
X112041220Y-78771532D01*
X112040638Y-78771467D01*
X112061816Y-78583503D01*
X112061816Y-78583496D01*
X112041418Y-78402458D01*
X112041417Y-78402453D01*
X112041416Y-78402452D01*
X111981243Y-78230485D01*
X111884311Y-78076219D01*
X111755481Y-77947389D01*
X111601215Y-77850457D01*
X111546893Y-77831449D01*
X111429246Y-77790282D01*
X111429241Y-77790281D01*
X111248204Y-77769884D01*
X111248196Y-77769884D01*
X111067158Y-77790281D01*
X111067153Y-77790282D01*
X110895182Y-77850458D01*
X110740918Y-77947389D01*
X110612089Y-78076218D01*
X110515158Y-78230482D01*
X110498273Y-78278735D01*
X110468913Y-78325459D01*
X108912659Y-79881713D01*
X108865935Y-79911073D01*
X108817682Y-79927958D01*
X108663418Y-80024889D01*
X108534589Y-80153718D01*
X108437658Y-80307982D01*
X108377482Y-80479953D01*
X108377481Y-80479958D01*
X108357084Y-80660996D01*
X108357084Y-80661003D01*
X108377481Y-80842038D01*
X108377482Y-80842044D01*
X108411842Y-80940239D01*
X108418800Y-80981193D01*
X108418800Y-86058421D01*
X108411842Y-86099376D01*
X108359082Y-86250153D01*
X108359081Y-86250158D01*
X108338684Y-86431196D01*
X108338684Y-86431203D01*
X108359081Y-86612238D01*
X108359082Y-86612243D01*
X108359082Y-86612245D01*
X108359083Y-86612247D01*
X108406779Y-86748553D01*
X108411842Y-86763023D01*
X108418800Y-86803977D01*
X108418800Y-88779600D01*
X108399115Y-88846639D01*
X108346311Y-88892394D01*
X108294800Y-88903600D01*
X104481370Y-88903600D01*
X104463401Y-88902291D01*
X104440376Y-88898918D01*
X104399402Y-88902503D01*
X104389568Y-88903364D01*
X104384168Y-88903600D01*
X104376182Y-88903600D01*
X104360272Y-88905459D01*
X104344361Y-88907319D01*
X104269561Y-88913863D01*
X104262494Y-88915322D01*
X104262477Y-88915242D01*
X104255594Y-88916768D01*
X104255614Y-88916849D01*
X104248594Y-88918512D01*
X104178065Y-88944182D01*
X104106804Y-88967795D01*
X104100264Y-88970846D01*
X104100229Y-88970771D01*
X104093882Y-88973843D01*
X104093919Y-88973917D01*
X104087469Y-88977156D01*
X104024760Y-89018400D01*
X103960863Y-89057811D01*
X103955199Y-89062291D01*
X103955147Y-89062225D01*
X103949685Y-89066674D01*
X103949739Y-89066739D01*
X103944204Y-89071383D01*
X103892705Y-89125969D01*
X103373959Y-89644713D01*
X103327235Y-89674073D01*
X103278982Y-89690958D01*
X103124718Y-89787889D01*
X102995889Y-89916718D01*
X102898958Y-90070982D01*
X102838782Y-90242953D01*
X102838781Y-90242958D01*
X102818384Y-90423996D01*
X102818384Y-90424003D01*
X101217177Y-90424003D01*
X101217177Y-76907500D01*
X101236862Y-76840461D01*
X101289666Y-76794706D01*
X101341177Y-76783500D01*
X136452500Y-76783500D01*
X136519539Y-76803185D01*
G37*
%TD.AperFunction*%
%TD*%
M02*
