%TF.GenerationSoftware,KiCad,Pcbnew,7.0.6*%
%TF.CreationDate,2023-08-20T14:40:53+02:00*%
%TF.ProjectId,pcergb,70636572-6762-42e6-9b69-6361645f7063,rev?*%
%TF.SameCoordinates,Original*%
%TF.FileFunction,Copper,L1,Top*%
%TF.FilePolarity,Positive*%
%FSLAX46Y46*%
G04 Gerber Fmt 4.6, Leading zero omitted, Abs format (unit mm)*
G04 Created by KiCad (PCBNEW 7.0.6) date 2023-08-20 14:40:53*
%MOMM*%
%LPD*%
G01*
G04 APERTURE LIST*
G04 Aperture macros list*
%AMRoundRect*
0 Rectangle with rounded corners*
0 $1 Rounding radius*
0 $2 $3 $4 $5 $6 $7 $8 $9 X,Y pos of 4 corners*
0 Add a 4 corners polygon primitive as box body*
4,1,4,$2,$3,$4,$5,$6,$7,$8,$9,$2,$3,0*
0 Add four circle primitives for the rounded corners*
1,1,$1+$1,$2,$3*
1,1,$1+$1,$4,$5*
1,1,$1+$1,$6,$7*
1,1,$1+$1,$8,$9*
0 Add four rect primitives between the rounded corners*
20,1,$1+$1,$2,$3,$4,$5,0*
20,1,$1+$1,$4,$5,$6,$7,0*
20,1,$1+$1,$6,$7,$8,$9,0*
20,1,$1+$1,$8,$9,$2,$3,0*%
G04 Aperture macros list end*
%TA.AperFunction,SMDPad,CuDef*%
%ADD10R,1.800000X1.300000*%
%TD*%
%TA.AperFunction,SMDPad,CuDef*%
%ADD11RoundRect,0.250000X0.450000X-0.350000X0.450000X0.350000X-0.450000X0.350000X-0.450000X-0.350000X0*%
%TD*%
%TA.AperFunction,SMDPad,CuDef*%
%ADD12RoundRect,0.250000X-0.475000X0.337500X-0.475000X-0.337500X0.475000X-0.337500X0.475000X0.337500X0*%
%TD*%
%TA.AperFunction,SMDPad,CuDef*%
%ADD13RoundRect,0.250000X-0.450000X0.350000X-0.450000X-0.350000X0.450000X-0.350000X0.450000X0.350000X0*%
%TD*%
%TA.AperFunction,SMDPad,CuDef*%
%ADD14RoundRect,0.250000X-0.875000X-1.025000X0.875000X-1.025000X0.875000X1.025000X-0.875000X1.025000X0*%
%TD*%
%TA.AperFunction,SMDPad,CuDef*%
%ADD15RoundRect,0.100000X-0.637500X-0.100000X0.637500X-0.100000X0.637500X0.100000X-0.637500X0.100000X0*%
%TD*%
%TA.AperFunction,SMDPad,CuDef*%
%ADD16R,1.000000X1.000000*%
%TD*%
%TA.AperFunction,ViaPad*%
%ADD17C,0.600000*%
%TD*%
%TA.AperFunction,Conductor*%
%ADD18C,0.250000*%
%TD*%
%TA.AperFunction,Conductor*%
%ADD19C,0.300000*%
%TD*%
%TA.AperFunction,Conductor*%
%ADD20C,0.400600*%
%TD*%
%TA.AperFunction,Conductor*%
%ADD21C,0.450000*%
%TD*%
%TA.AperFunction,Conductor*%
%ADD22C,0.500000*%
%TD*%
G04 APERTURE END LIST*
D10*
%TO.P,J7,1,Pin_1*%
%TO.N,out_r*%
X134620000Y-79756000D03*
%TD*%
D11*
%TO.P,R13,1*%
%TO.N,Net-(C9-Pad1)*%
X120142000Y-85598000D03*
%TO.P,R13,2*%
%TO.N,Net-(U1-CH4_OUT)*%
X120142000Y-83598000D03*
%TD*%
D10*
%TO.P,J8,1,Pin_1*%
%TO.N,out_g*%
X134620000Y-82042000D03*
%TD*%
D12*
%TO.P,C3,1*%
%TO.N,Net-(U1-CH3_IN)*%
X110236000Y-85301000D03*
%TO.P,C3,2*%
%TO.N,Net-(C3-Pad2)*%
X110236000Y-87376000D03*
%TD*%
D11*
%TO.P,R1,1*%
%TO.N,Net-(C1-Pad2)*%
X106172000Y-79740000D03*
%TO.P,R1,2*%
%TO.N,in_r*%
X106172000Y-77740000D03*
%TD*%
%TO.P,R5,1*%
%TO.N,Net-(C1-Pad2)*%
X108204000Y-79756000D03*
%TO.P,R5,2*%
%TO.N,+5V*%
X108204000Y-77756000D03*
%TD*%
D10*
%TO.P,J3,1,Pin_1*%
%TO.N,in_b*%
X103632000Y-83562000D03*
%TD*%
D11*
%TO.P,R12,1*%
%TO.N,Net-(C8-Pad1)*%
X122428000Y-90678000D03*
%TO.P,R12,2*%
%TO.N,Net-(U1-CH3_OUT)*%
X122428000Y-88678000D03*
%TD*%
D12*
%TO.P,C4,1*%
%TO.N,Net-(U1-CH4_IN)*%
X110236000Y-89111000D03*
%TO.P,C4,2*%
%TO.N,Net-(C4-Pad2)*%
X110236000Y-91186000D03*
%TD*%
D11*
%TO.P,R11,1*%
%TO.N,Net-(C7-Pad1)*%
X122428000Y-85582000D03*
%TO.P,R11,2*%
%TO.N,Net-(U1-CH2_OUT)*%
X122428000Y-83582000D03*
%TD*%
D10*
%TO.P,J10,1,Pin_1*%
%TO.N,out_s*%
X134620000Y-86614000D03*
%TD*%
%TO.P,J6,1,Pin_1*%
%TO.N,GND*%
X103632000Y-88134000D03*
%TD*%
D13*
%TO.P,R9,1*%
%TO.N,+5V*%
X115062000Y-83598000D03*
%TO.P,R9,2*%
%TO.N,LPF*%
X115062000Y-85598000D03*
%TD*%
D10*
%TO.P,J5,1,Pin_1*%
%TO.N,+5V*%
X103632000Y-90424000D03*
%TD*%
D11*
%TO.P,R10,1*%
%TO.N,Net-(C6-Pad1)*%
X122428000Y-80264000D03*
%TO.P,R10,2*%
%TO.N,Net-(U1-CH1_OUT)*%
X122428000Y-78264000D03*
%TD*%
D10*
%TO.P,J9,1,Pin_1*%
%TO.N,out_b*%
X134620000Y-84328000D03*
%TD*%
D11*
%TO.P,R6,1*%
%TO.N,Net-(C2-Pad2)*%
X108204000Y-83566000D03*
%TO.P,R6,2*%
%TO.N,+5V*%
X108204000Y-81566000D03*
%TD*%
%TO.P,R8,1*%
%TO.N,Net-(C4-Pad2)*%
X108204000Y-91170000D03*
%TO.P,R8,2*%
%TO.N,+5V*%
X108204000Y-89170000D03*
%TD*%
D14*
%TO.P,C7,1*%
%TO.N,Net-(C7-Pad1)*%
X125324000Y-84455000D03*
%TO.P,C7,2*%
%TO.N,out_g*%
X131724000Y-84455000D03*
%TD*%
D10*
%TO.P,J2,1,Pin_1*%
%TO.N,in_g*%
X103632000Y-81276000D03*
%TD*%
D11*
%TO.P,R3,1*%
%TO.N,Net-(C3-Pad2)*%
X106172000Y-87344000D03*
%TO.P,R3,2*%
%TO.N,in_b*%
X106172000Y-85344000D03*
%TD*%
D14*
%TO.P,C9,1*%
%TO.N,Net-(C9-Pad1)*%
X113284000Y-89408000D03*
%TO.P,C9,2*%
%TO.N,out_s*%
X119684000Y-89408000D03*
%TD*%
D12*
%TO.P,C5,1*%
%TO.N,+5V*%
X112776000Y-83523000D03*
%TO.P,C5,2*%
%TO.N,GND*%
X112776000Y-85598000D03*
%TD*%
D11*
%TO.P,R7,1*%
%TO.N,Net-(C3-Pad2)*%
X108204000Y-87376000D03*
%TO.P,R7,2*%
%TO.N,+5V*%
X108204000Y-85376000D03*
%TD*%
D14*
%TO.P,C8,2*%
%TO.N,out_b*%
X131724000Y-89408000D03*
%TO.P,C8,1*%
%TO.N,Net-(C8-Pad1)*%
X125324000Y-89408000D03*
%TD*%
%TO.P,C6,1*%
%TO.N,Net-(C6-Pad1)*%
X125324000Y-79502000D03*
%TO.P,C6,2*%
%TO.N,out_r*%
X131724000Y-79502000D03*
%TD*%
D10*
%TO.P,J4,1,Pin_1*%
%TO.N,in_s*%
X103632000Y-85848000D03*
%TD*%
D12*
%TO.P,C2,1*%
%TO.N,Net-(U1-CH2_IN)*%
X110236000Y-81491000D03*
%TO.P,C2,2*%
%TO.N,Net-(C2-Pad2)*%
X110236000Y-83566000D03*
%TD*%
%TO.P,C1,1*%
%TO.N,Net-(U1-CH1_IN)*%
X110236000Y-77681000D03*
%TO.P,C1,2*%
%TO.N,Net-(C1-Pad2)*%
X110236000Y-79756000D03*
%TD*%
D15*
%TO.P,U1,1,CH1_IN*%
%TO.N,Net-(U1-CH1_IN)*%
X113175000Y-77705800D03*
%TO.P,U1,2,CH2_IN*%
%TO.N,Net-(U1-CH2_IN)*%
X113175000Y-78355800D03*
%TO.P,U1,3,CH3_IN*%
%TO.N,Net-(U1-CH3_IN)*%
X113175000Y-79005800D03*
%TO.P,U1,4,CH4_IN*%
%TO.N,Net-(U1-CH4_IN)*%
X113175000Y-79655800D03*
%TO.P,U1,5,GND*%
%TO.N,GND*%
X113175000Y-80305800D03*
%TO.P,U1,6,DISABLE*%
X113175000Y-80955800D03*
%TO.P,U1,7,NC*%
%TO.N,unconnected-(U1-NC-Pad7)*%
X113175000Y-81605800D03*
%TO.P,U1,8,NC*%
%TO.N,unconnected-(U1-NC-Pad8)*%
X118900000Y-81605800D03*
%TO.P,U1,9,BYPASS*%
%TO.N,LPF*%
X118900000Y-80955800D03*
%TO.P,U1,10,V_{S+}*%
%TO.N,+5V*%
X118900000Y-80305800D03*
%TO.P,U1,11,CH4_OUT*%
%TO.N,Net-(U1-CH4_OUT)*%
X118900000Y-79655800D03*
%TO.P,U1,12,CH3_OUT*%
%TO.N,Net-(U1-CH3_OUT)*%
X118900000Y-79005800D03*
%TO.P,U1,13,CH2_OUT*%
%TO.N,Net-(U1-CH2_OUT)*%
X118900000Y-78355800D03*
%TO.P,U1,14,CH1_OUT*%
%TO.N,Net-(U1-CH1_OUT)*%
X118900000Y-77705800D03*
%TD*%
D11*
%TO.P,R4,1*%
%TO.N,Net-(C4-Pad2)*%
X106172000Y-91186000D03*
%TO.P,R4,2*%
%TO.N,in_s*%
X106172000Y-89186000D03*
%TD*%
D10*
%TO.P,J1,1,Pin_1*%
%TO.N,in_r*%
X103632000Y-78990000D03*
%TD*%
D11*
%TO.P,R2,1*%
%TO.N,Net-(C2-Pad2)*%
X106172000Y-83566000D03*
%TO.P,R2,2*%
%TO.N,in_g*%
X106172000Y-81566000D03*
%TD*%
D16*
%TO.P,JP1,1,A*%
%TO.N,LPF*%
X117602000Y-83790000D03*
%TO.P,JP1,2,B*%
%TO.N,GND*%
X117602000Y-85090000D03*
%TD*%
D17*
%TO.N,Net-(U1-CH3_IN)*%
X114439000Y-78601000D03*
X111330800Y-86283300D03*
%TO.N,Net-(U1-CH4_IN)*%
X112014000Y-86929600D03*
X111877000Y-81068236D03*
%TO.N,+5V*%
X111248200Y-78583500D03*
X111560100Y-90382100D03*
X103632000Y-90424000D03*
X109170700Y-80661000D03*
X109152300Y-86431200D03*
%TO.N,GND*%
X115062000Y-80772000D03*
X116586000Y-85090000D03*
X103632000Y-88138000D03*
%TO.N,Net-(U1-CH3_OUT)*%
X123663600Y-88383800D03*
X117231300Y-79554000D03*
%TD*%
D18*
%TO.N,Net-(U1-CH1_IN)*%
X113175000Y-77705800D02*
X113150200Y-77681000D01*
X113150200Y-77681000D02*
X110236000Y-77681000D01*
%TO.N,Net-(C1-Pad2)*%
X110236000Y-79756000D02*
X108204000Y-79756000D01*
X106188000Y-79756000D02*
X106172000Y-79740000D01*
X108204000Y-79756000D02*
X106188000Y-79756000D01*
D19*
%TO.N,Net-(U1-CH2_IN)*%
X111311000Y-79495904D02*
X112451104Y-78355800D01*
X110236000Y-81491000D02*
X111311000Y-80416000D01*
X111311000Y-80416000D02*
X111311000Y-79495904D01*
X112451104Y-78355800D02*
X113175000Y-78355800D01*
D18*
X113175000Y-78355800D02*
X112462900Y-78355800D01*
%TO.N,Net-(C2-Pad2)*%
X110236000Y-83566000D02*
X108204000Y-83566000D01*
X106172000Y-83566000D02*
X108204000Y-83566000D01*
%TO.N,Net-(U1-CH3_IN)*%
X111330800Y-86283300D02*
X111218300Y-86283300D01*
X113175000Y-79005800D02*
X114034200Y-79005800D01*
X114034200Y-79005800D02*
X114439000Y-78601000D01*
X111218300Y-86283300D02*
X110236000Y-85301000D01*
%TO.N,Net-(C3-Pad2)*%
X110236000Y-87376000D02*
X108204000Y-87376000D01*
X108172000Y-87344000D02*
X106172000Y-87344000D01*
X108204000Y-87376000D02*
X108172000Y-87344000D01*
D19*
%TO.N,Net-(U1-CH4_IN)*%
X111811000Y-80213000D02*
X111811000Y-81002236D01*
X110236000Y-89111000D02*
X112014000Y-87333000D01*
X112368200Y-79655800D02*
X111811000Y-80213000D01*
X112014000Y-87333000D02*
X112014000Y-86929600D01*
X113175000Y-79655800D02*
X112368200Y-79655800D01*
X111811000Y-81002236D02*
X111877000Y-81068236D01*
D18*
%TO.N,Net-(C4-Pad2)*%
X110236000Y-91186000D02*
X108220000Y-91186000D01*
X108220000Y-91186000D02*
X108204000Y-91170000D01*
X108188000Y-91186000D02*
X108204000Y-91170000D01*
X106172000Y-91186000D02*
X108188000Y-91186000D01*
D20*
%TO.N,+5V*%
X118900000Y-80305800D02*
X116075400Y-80305800D01*
D21*
X111113200Y-78718500D02*
X111248200Y-78583500D01*
X109166500Y-78718500D02*
X111113200Y-78718500D01*
X114987000Y-83523000D02*
X112776000Y-83523000D01*
X108674200Y-81566000D02*
X108674200Y-81157500D01*
X108204000Y-85376000D02*
X109152300Y-86324300D01*
X111304400Y-90126400D02*
X109160400Y-90126400D01*
X109152300Y-86324300D02*
X109152300Y-86431200D01*
X116075400Y-80305800D02*
X116075400Y-82434600D01*
X109379500Y-82506400D02*
X108674200Y-81801100D01*
X109160400Y-90126400D02*
X108204000Y-89170000D01*
X112367300Y-83523000D02*
X111350700Y-82506400D01*
X114987000Y-83523000D02*
X115062000Y-83598000D01*
X111560100Y-90382100D02*
X111304400Y-90126400D01*
X108674200Y-81801100D02*
X108674200Y-81566000D01*
X108204000Y-81566000D02*
X108674200Y-81566000D01*
X112776000Y-83523000D02*
X112367300Y-83523000D01*
X111350700Y-82506400D02*
X109379500Y-82506400D01*
X116075400Y-82434600D02*
X114987000Y-83523000D01*
X108204000Y-77756000D02*
X109166500Y-78718500D01*
X108674200Y-81157500D02*
X109170700Y-80661000D01*
D22*
%TO.N,GND*%
X114595800Y-80305800D02*
X115062000Y-80772000D01*
X113175000Y-80955800D02*
X113175000Y-80305800D01*
X113175000Y-80955800D02*
X114878200Y-80955800D01*
X112776000Y-85598000D02*
X113826000Y-86648000D01*
X113175000Y-80305800D02*
X114595800Y-80305800D01*
X117602000Y-85090000D02*
X116586000Y-85090000D01*
X113826000Y-86648000D02*
X116044000Y-86648000D01*
X116586000Y-86106000D02*
X116586000Y-85090000D01*
X116044000Y-86648000D02*
X116586000Y-86106000D01*
X114878200Y-80955800D02*
X115062000Y-80772000D01*
D18*
%TO.N,Net-(C6-Pad1)*%
X125324000Y-79248000D02*
X123444000Y-79248000D01*
X123444000Y-79248000D02*
X122428000Y-80264000D01*
%TO.N,out_r*%
X132885100Y-79248000D02*
X133393100Y-79756000D01*
X134620000Y-79756000D02*
X133393100Y-79756000D01*
X131724000Y-79248000D02*
X132885100Y-79248000D01*
%TO.N,Net-(C7-Pad1)*%
X125324000Y-84455000D02*
X124197000Y-85582000D01*
X124197000Y-85582000D02*
X122428000Y-85582000D01*
%TO.N,out_g*%
X134620000Y-82042000D02*
X133393100Y-82042000D01*
X131724000Y-84455000D02*
X133393100Y-82785900D01*
X133393100Y-82785900D02*
X133393100Y-82042000D01*
%TO.N,Net-(C8-Pad1)*%
X123444000Y-89662000D02*
X122428000Y-90678000D01*
X125324000Y-89662000D02*
X123444000Y-89662000D01*
%TO.N,out_b*%
X135846900Y-87505600D02*
X135846900Y-85799100D01*
X135846900Y-85799100D02*
X135352700Y-85304900D01*
X134620000Y-84328000D02*
X134620000Y-85304900D01*
X135352700Y-85304900D02*
X134620000Y-85304900D01*
X131724000Y-89662000D02*
X133690500Y-89662000D01*
X133690500Y-89662000D02*
X135846900Y-87505600D01*
%TO.N,Net-(C9-Pad1)*%
X113284000Y-89662000D02*
X116078000Y-89662000D01*
X116078000Y-89662000D02*
X120142000Y-85598000D01*
%TO.N,out_s*%
X134620000Y-86614000D02*
X122732000Y-86614000D01*
X122732000Y-86614000D02*
X119684000Y-89662000D01*
%TO.N,in_r*%
X104922000Y-78990000D02*
X103632000Y-78990000D01*
X106172000Y-77740000D02*
X104922000Y-78990000D01*
%TO.N,in_g*%
X103632000Y-81276000D02*
X104858900Y-81276000D01*
X105148900Y-81566000D02*
X104858900Y-81276000D01*
X106172000Y-81566000D02*
X105148900Y-81566000D01*
%TO.N,in_b*%
X103632000Y-83562000D02*
X104858900Y-83562000D01*
X106172000Y-85344000D02*
X104858900Y-84030900D01*
X104858900Y-84030900D02*
X104858900Y-83562000D01*
%TO.N,in_s*%
X104409500Y-86824900D02*
X103632000Y-86824900D01*
X106172000Y-89186000D02*
X104942700Y-87956700D01*
X104942700Y-87956700D02*
X104942700Y-87358100D01*
X104942700Y-87358100D02*
X104409500Y-86824900D01*
X103632000Y-85848000D02*
X103632000Y-86824900D01*
%TO.N,Net-(U1-CH4_OUT)*%
X119641600Y-79655800D02*
X118900000Y-79655800D01*
X120142000Y-80156200D02*
X119641600Y-79655800D01*
X120142000Y-83598000D02*
X120142000Y-80156200D01*
%TO.N,Net-(U1-CH3_OUT)*%
X117779500Y-79005800D02*
X117231300Y-79554000D01*
X122722200Y-88383800D02*
X122428000Y-88678000D01*
X123663600Y-88383800D02*
X122722200Y-88383800D01*
X118900000Y-79005800D02*
X117779500Y-79005800D01*
%TO.N,Net-(U1-CH2_OUT)*%
X119627400Y-78355800D02*
X118900000Y-78355800D01*
X120599700Y-81753700D02*
X120599700Y-79328100D01*
X122428000Y-83582000D02*
X120599700Y-81753700D01*
X120599700Y-79328100D02*
X119627400Y-78355800D01*
%TO.N,Net-(U1-CH1_OUT)*%
X118900000Y-77705800D02*
X121869800Y-77705800D01*
X121869800Y-77705800D02*
X122428000Y-78264000D01*
%TO.N,LPF*%
X118151400Y-80955800D02*
X117602000Y-81505200D01*
X117188600Y-83790000D02*
X116775100Y-83790000D01*
X117602000Y-81505200D02*
X117602000Y-83790000D01*
X116775100Y-83790000D02*
X116775100Y-83884900D01*
X117188600Y-83790000D02*
X117602000Y-83790000D01*
X116775100Y-83884900D02*
X115062000Y-85598000D01*
X118900000Y-80955800D02*
X118151400Y-80955800D01*
%TD*%
M02*
