%TF.GenerationSoftware,KiCad,Pcbnew,7.0.6*%
%TF.CreationDate,2023-08-20T14:40:54+02:00*%
%TF.ProjectId,pcergb,70636572-6762-42e6-9b69-6361645f7063,rev?*%
%TF.SameCoordinates,Original*%
%TF.FileFunction,Soldermask,Top*%
%TF.FilePolarity,Negative*%
%FSLAX46Y46*%
G04 Gerber Fmt 4.6, Leading zero omitted, Abs format (unit mm)*
G04 Created by KiCad (PCBNEW 7.0.6) date 2023-08-20 14:40:54*
%MOMM*%
%LPD*%
G01*
G04 APERTURE LIST*
G04 Aperture macros list*
%AMRoundRect*
0 Rectangle with rounded corners*
0 $1 Rounding radius*
0 $2 $3 $4 $5 $6 $7 $8 $9 X,Y pos of 4 corners*
0 Add a 4 corners polygon primitive as box body*
4,1,4,$2,$3,$4,$5,$6,$7,$8,$9,$2,$3,0*
0 Add four circle primitives for the rounded corners*
1,1,$1+$1,$2,$3*
1,1,$1+$1,$4,$5*
1,1,$1+$1,$6,$7*
1,1,$1+$1,$8,$9*
0 Add four rect primitives between the rounded corners*
20,1,$1+$1,$2,$3,$4,$5,0*
20,1,$1+$1,$4,$5,$6,$7,0*
20,1,$1+$1,$6,$7,$8,$9,0*
20,1,$1+$1,$8,$9,$2,$3,0*%
G04 Aperture macros list end*
%ADD10RoundRect,0.050800X-0.900000X0.650000X-0.900000X-0.650000X0.900000X-0.650000X0.900000X0.650000X0*%
%ADD11RoundRect,0.300800X0.450000X-0.350000X0.450000X0.350000X-0.450000X0.350000X-0.450000X-0.350000X0*%
%ADD12RoundRect,0.300800X-0.475000X0.337500X-0.475000X-0.337500X0.475000X-0.337500X0.475000X0.337500X0*%
%ADD13RoundRect,0.300800X-0.450000X0.350000X-0.450000X-0.350000X0.450000X-0.350000X0.450000X0.350000X0*%
%ADD14RoundRect,0.300800X-0.875000X-1.025000X0.875000X-1.025000X0.875000X1.025000X-0.875000X1.025000X0*%
%ADD15RoundRect,0.150800X-0.637500X-0.100000X0.637500X-0.100000X0.637500X0.100000X-0.637500X0.100000X0*%
%ADD16RoundRect,0.050800X-0.500000X0.500000X-0.500000X-0.500000X0.500000X-0.500000X0.500000X0.500000X0*%
G04 APERTURE END LIST*
D10*
%TO.C,J7*%
X134620000Y-79756000D03*
%TD*%
D11*
%TO.C,R13*%
X120142000Y-85598000D03*
X120142000Y-83598000D03*
%TD*%
D10*
%TO.C,J8*%
X134620000Y-82042000D03*
%TD*%
D12*
%TO.C,C3*%
X110236000Y-85301000D03*
X110236000Y-87376000D03*
%TD*%
D11*
%TO.C,R1*%
X106172000Y-79740000D03*
X106172000Y-77740000D03*
%TD*%
%TO.C,R5*%
X108204000Y-79756000D03*
X108204000Y-77756000D03*
%TD*%
D10*
%TO.C,J3*%
X103632000Y-83562000D03*
%TD*%
D11*
%TO.C,R12*%
X122428000Y-90678000D03*
X122428000Y-88678000D03*
%TD*%
D12*
%TO.C,C4*%
X110236000Y-89111000D03*
X110236000Y-91186000D03*
%TD*%
D11*
%TO.C,R11*%
X122428000Y-85582000D03*
X122428000Y-83582000D03*
%TD*%
D10*
%TO.C,J10*%
X134620000Y-86614000D03*
%TD*%
%TO.C,J6*%
X103632000Y-88134000D03*
%TD*%
D13*
%TO.C,R9*%
X115062000Y-83598000D03*
X115062000Y-85598000D03*
%TD*%
D10*
%TO.C,J5*%
X103632000Y-90424000D03*
%TD*%
D11*
%TO.C,R10*%
X122428000Y-80264000D03*
X122428000Y-78264000D03*
%TD*%
D10*
%TO.C,J9*%
X134620000Y-84328000D03*
%TD*%
D11*
%TO.C,R6*%
X108204000Y-83566000D03*
X108204000Y-81566000D03*
%TD*%
%TO.C,R8*%
X108204000Y-91170000D03*
X108204000Y-89170000D03*
%TD*%
D14*
%TO.C,C7*%
X125324000Y-84455000D03*
X131724000Y-84455000D03*
%TD*%
D10*
%TO.C,J2*%
X103632000Y-81276000D03*
%TD*%
D11*
%TO.C,R3*%
X106172000Y-87344000D03*
X106172000Y-85344000D03*
%TD*%
D14*
%TO.C,C9*%
X113284000Y-89408000D03*
X119684000Y-89408000D03*
%TD*%
D12*
%TO.C,C5*%
X112776000Y-83523000D03*
X112776000Y-85598000D03*
%TD*%
D11*
%TO.C,R7*%
X108204000Y-87376000D03*
X108204000Y-85376000D03*
%TD*%
D14*
%TO.C,C8*%
X131724000Y-89408000D03*
X125324000Y-89408000D03*
%TD*%
%TO.C,C6*%
X125324000Y-79502000D03*
X131724000Y-79502000D03*
%TD*%
D10*
%TO.C,J4*%
X103632000Y-85848000D03*
%TD*%
D12*
%TO.C,C2*%
X110236000Y-81491000D03*
X110236000Y-83566000D03*
%TD*%
%TO.C,C1*%
X110236000Y-77681000D03*
X110236000Y-79756000D03*
%TD*%
D15*
%TO.C,U1*%
X113175000Y-77705800D03*
X113175000Y-78355800D03*
X113175000Y-79005800D03*
X113175000Y-79655800D03*
X113175000Y-80305800D03*
X113175000Y-80955800D03*
X113175000Y-81605800D03*
X118900000Y-81605800D03*
X118900000Y-80955800D03*
X118900000Y-80305800D03*
X118900000Y-79655800D03*
X118900000Y-79005800D03*
X118900000Y-78355800D03*
X118900000Y-77705800D03*
%TD*%
D11*
%TO.C,R4*%
X106172000Y-91186000D03*
X106172000Y-89186000D03*
%TD*%
D10*
%TO.C,J1*%
X103632000Y-78990000D03*
%TD*%
D11*
%TO.C,R2*%
X106172000Y-83566000D03*
X106172000Y-81566000D03*
%TD*%
D16*
%TO.C,JP1*%
X117602000Y-83790000D03*
X117602000Y-85090000D03*
%TD*%
M02*
