%TF.GenerationSoftware,KiCad,Pcbnew,7.0.6*%
%TF.CreationDate,2023-08-20T14:40:54+02:00*%
%TF.ProjectId,pcergb,70636572-6762-42e6-9b69-6361645f7063,rev?*%
%TF.SameCoordinates,Original*%
%TF.FileFunction,Other,User*%
%FSLAX46Y46*%
G04 Gerber Fmt 4.6, Leading zero omitted, Abs format (unit mm)*
G04 Created by KiCad (PCBNEW 7.0.6) date 2023-08-20 14:40:54*
%MOMM*%
%LPD*%
G01*
G04 APERTURE LIST*
%ADD10C,0.050000*%
G04 APERTURE END LIST*
D10*
%TO.C,J7*%
X135636000Y-78994000D02*
X133604000Y-78994000D01*
X133604000Y-78994000D02*
X133604000Y-80518000D01*
X135636000Y-80518000D02*
X135636000Y-78994000D01*
X133604000Y-80518000D02*
X135636000Y-80518000D01*
%TO.C,R13*%
X119192000Y-86448000D02*
X119192000Y-82748000D01*
X121092000Y-86448000D02*
X119192000Y-86448000D01*
X119192000Y-82748000D02*
X121092000Y-82748000D01*
X121092000Y-82748000D02*
X121092000Y-86448000D01*
%TO.C,J8*%
X135636000Y-81280000D02*
X133604000Y-81280000D01*
X133604000Y-81280000D02*
X133604000Y-82804000D01*
X135636000Y-82804000D02*
X135636000Y-81280000D01*
X133604000Y-82804000D02*
X135636000Y-82804000D01*
%TO.C,C3*%
X111216000Y-84458500D02*
X111216000Y-88218500D01*
X109256000Y-84458500D02*
X111216000Y-84458500D01*
X111216000Y-88218500D02*
X109256000Y-88218500D01*
X109256000Y-88218500D02*
X109256000Y-84458500D01*
%TO.C,R1*%
X105222000Y-80590000D02*
X105222000Y-76890000D01*
X107122000Y-80590000D02*
X105222000Y-80590000D01*
X105222000Y-76890000D02*
X107122000Y-76890000D01*
X107122000Y-76890000D02*
X107122000Y-80590000D01*
%TO.C,R5*%
X107254000Y-80606000D02*
X107254000Y-76906000D01*
X109154000Y-80606000D02*
X107254000Y-80606000D01*
X107254000Y-76906000D02*
X109154000Y-76906000D01*
X109154000Y-76906000D02*
X109154000Y-80606000D01*
%TO.C,J3*%
X104648000Y-82800000D02*
X102616000Y-82800000D01*
X102616000Y-82800000D02*
X102616000Y-84324000D01*
X104648000Y-84324000D02*
X104648000Y-82800000D01*
X102616000Y-84324000D02*
X104648000Y-84324000D01*
%TO.C,R12*%
X121478000Y-91528000D02*
X121478000Y-87828000D01*
X123378000Y-91528000D02*
X121478000Y-91528000D01*
X121478000Y-87828000D02*
X123378000Y-87828000D01*
X123378000Y-87828000D02*
X123378000Y-91528000D01*
%TO.C,C4*%
X111216000Y-88268500D02*
X111216000Y-92028500D01*
X109256000Y-88268500D02*
X111216000Y-88268500D01*
X111216000Y-92028500D02*
X109256000Y-92028500D01*
X109256000Y-92028500D02*
X109256000Y-88268500D01*
%TO.C,R11*%
X121478000Y-86432000D02*
X121478000Y-82732000D01*
X123378000Y-86432000D02*
X121478000Y-86432000D01*
X121478000Y-82732000D02*
X123378000Y-82732000D01*
X123378000Y-82732000D02*
X123378000Y-86432000D01*
%TO.C,J10*%
X135636000Y-85852000D02*
X133604000Y-85852000D01*
X133604000Y-85852000D02*
X133604000Y-87376000D01*
X135636000Y-87376000D02*
X135636000Y-85852000D01*
X133604000Y-87376000D02*
X135636000Y-87376000D01*
%TO.C,J6*%
X104648000Y-87372000D02*
X102616000Y-87372000D01*
X102616000Y-87372000D02*
X102616000Y-88896000D01*
X104648000Y-88896000D02*
X104648000Y-87372000D01*
X102616000Y-88896000D02*
X104648000Y-88896000D01*
%TO.C,R9*%
X116012000Y-82748000D02*
X116012000Y-86448000D01*
X114112000Y-82748000D02*
X116012000Y-82748000D01*
X116012000Y-86448000D02*
X114112000Y-86448000D01*
X114112000Y-86448000D02*
X114112000Y-82748000D01*
%TO.C,J5*%
X104648000Y-89662000D02*
X102616000Y-89662000D01*
X102616000Y-89662000D02*
X102616000Y-91186000D01*
X104648000Y-91186000D02*
X104648000Y-89662000D01*
X102616000Y-91186000D02*
X104648000Y-91186000D01*
%TO.C,R10*%
X121478000Y-81114000D02*
X121478000Y-77414000D01*
X123378000Y-81114000D02*
X121478000Y-81114000D01*
X121478000Y-77414000D02*
X123378000Y-77414000D01*
X123378000Y-77414000D02*
X123378000Y-81114000D01*
%TO.C,J9*%
X135636000Y-83566000D02*
X133604000Y-83566000D01*
X133604000Y-83566000D02*
X133604000Y-85090000D01*
X135636000Y-85090000D02*
X135636000Y-83566000D01*
X133604000Y-85090000D02*
X135636000Y-85090000D01*
%TO.C,R6*%
X107254000Y-84416000D02*
X107254000Y-80716000D01*
X109154000Y-84416000D02*
X107254000Y-84416000D01*
X107254000Y-80716000D02*
X109154000Y-80716000D01*
X109154000Y-80716000D02*
X109154000Y-84416000D01*
%TO.C,R8*%
X107254000Y-92020000D02*
X107254000Y-88320000D01*
X109154000Y-92020000D02*
X107254000Y-92020000D01*
X107254000Y-88320000D02*
X109154000Y-88320000D01*
X109154000Y-88320000D02*
X109154000Y-92020000D01*
%TO.C,C7*%
X123944000Y-82055000D02*
X133104000Y-82055000D01*
X123944000Y-86855000D02*
X123944000Y-82055000D01*
X133104000Y-82055000D02*
X133104000Y-86855000D01*
X133104000Y-86855000D02*
X123944000Y-86855000D01*
%TO.C,J2*%
X104648000Y-80514000D02*
X102616000Y-80514000D01*
X102616000Y-80514000D02*
X102616000Y-82038000D01*
X104648000Y-82038000D02*
X104648000Y-80514000D01*
X102616000Y-82038000D02*
X104648000Y-82038000D01*
%TO.C,R3*%
X105222000Y-88194000D02*
X105222000Y-84494000D01*
X107122000Y-88194000D02*
X105222000Y-88194000D01*
X105222000Y-84494000D02*
X107122000Y-84494000D01*
X107122000Y-84494000D02*
X107122000Y-88194000D01*
%TO.C,C9*%
X111904000Y-87008000D02*
X121064000Y-87008000D01*
X111904000Y-91808000D02*
X111904000Y-87008000D01*
X121064000Y-87008000D02*
X121064000Y-91808000D01*
X121064000Y-91808000D02*
X111904000Y-91808000D01*
%TO.C,C5*%
X113756000Y-82680500D02*
X113756000Y-86440500D01*
X111796000Y-82680500D02*
X113756000Y-82680500D01*
X113756000Y-86440500D02*
X111796000Y-86440500D01*
X111796000Y-86440500D02*
X111796000Y-82680500D01*
%TO.C,R7*%
X107254000Y-88226000D02*
X107254000Y-84526000D01*
X109154000Y-88226000D02*
X107254000Y-88226000D01*
X107254000Y-84526000D02*
X109154000Y-84526000D01*
X109154000Y-84526000D02*
X109154000Y-88226000D01*
%TO.C,C8*%
X133104000Y-91808000D02*
X123944000Y-91808000D01*
X133104000Y-87008000D02*
X133104000Y-91808000D01*
X123944000Y-91808000D02*
X123944000Y-87008000D01*
X123944000Y-87008000D02*
X133104000Y-87008000D01*
%TO.C,C6*%
X123944000Y-77102000D02*
X133104000Y-77102000D01*
X123944000Y-81902000D02*
X123944000Y-77102000D01*
X133104000Y-77102000D02*
X133104000Y-81902000D01*
X133104000Y-81902000D02*
X123944000Y-81902000D01*
%TO.C,J4*%
X104648000Y-85086000D02*
X102616000Y-85086000D01*
X102616000Y-85086000D02*
X102616000Y-86610000D01*
X104648000Y-86610000D02*
X104648000Y-85086000D01*
X102616000Y-86610000D02*
X104648000Y-86610000D01*
%TO.C,C2*%
X111216000Y-80648500D02*
X111216000Y-84408500D01*
X109256000Y-80648500D02*
X111216000Y-80648500D01*
X111216000Y-84408500D02*
X109256000Y-84408500D01*
X109256000Y-84408500D02*
X109256000Y-80648500D01*
%TO.C,C1*%
X111216000Y-76838500D02*
X111216000Y-80598500D01*
X109256000Y-76838500D02*
X111216000Y-76838500D01*
X111216000Y-80598500D02*
X109256000Y-80598500D01*
X109256000Y-80598500D02*
X109256000Y-76838500D01*
%TO.C,U1*%
X112187500Y-76905800D02*
X112187500Y-82405800D01*
X112187500Y-82405800D02*
X119887500Y-82405800D01*
X119887500Y-76905800D02*
X112187500Y-76905800D01*
X119887500Y-82405800D02*
X119887500Y-76905800D01*
%TO.C,R4*%
X105222000Y-92036000D02*
X105222000Y-88336000D01*
X107122000Y-92036000D02*
X105222000Y-92036000D01*
X105222000Y-88336000D02*
X107122000Y-88336000D01*
X107122000Y-88336000D02*
X107122000Y-92036000D01*
%TO.C,J1*%
X104648000Y-78228000D02*
X102616000Y-78228000D01*
X102616000Y-78228000D02*
X102616000Y-79752000D01*
X104648000Y-79752000D02*
X104648000Y-78228000D01*
X102616000Y-79752000D02*
X104648000Y-79752000D01*
%TO.C,R2*%
X105222000Y-84416000D02*
X105222000Y-80716000D01*
X107122000Y-84416000D02*
X105222000Y-84416000D01*
X105222000Y-80716000D02*
X107122000Y-80716000D01*
X107122000Y-80716000D02*
X107122000Y-84416000D01*
%TD*%
M02*
